Serifas_Text-REGULAR.ufo
<glyph name="exclam" format="2">
  <advance width="503"/>
  <unicode hex="0021"/>
  <outline>
    <contour>
      <point x="174" y="156.0" type="line"/>
      <point x="243" y="156.0" type="line"/>
      <point x="276" y="754.0" type="line"/>
      <point x="141" y="754.0" type="line"/>
    </contour>
    <contour>
      <point x="212" y="-23" type="curve" smooth="yes"/>
      <point x="262" y="-23"/>
      <point x="275" y="-10"/>
      <point x="275" y="39" type="curve" smooth="yes"/>
      <point x="275" y="88"/>
      <point x="262" y="101"/>
      <point x="212" y="101" type="curve" smooth="yes"/>
      <point x="162" y="101"/>
      <point x="149" y="88"/>
      <point x="149" y="39" type="curve" smooth="yes"/>
      <point x="149" y="-10"/>
      <point x="162" y="-23"/>
    </contour>
  </outline>
</glyph>
<glyph name="ampersand" format="2">
  <advance width="742"/>
  <unicode hex="0026"/>
  <outline>
    <contour>
      <point x="731.0" y="327" type="line"/>
      <point x="731.0" y="391" type="line"/>
      <point x="526" y="398" type="line"/>
      <point x="526.0" y="111.0"/>
      <point x="487" y="61"/>
      <point x="324" y="61" type="curve"/>
      <point x="171" y="61"/>
      <point x="122" y="84.0"/>
      <point x="122" y="230" type="curve" smooth="yes"/>
      <point x="122" y="329"/>
      <point x="150.0" y="396.0"/>
      <point x="277" y="396" type="curve"/>
      <point x="256" y="465" type="line"/>
      <point x="84" y="465"/>
      <point x="24.0" y="368.0"/>
      <point x="25" y="224" type="curve" smooth="yes"/>
      <point x="26.012396372325618" y="44.805842098364764"/>
      <point x="97" y="-21"/>
      <point x="321" y="-21" type="curve"/>
      <point x="578" y="-21"/>
      <point x="615.0" y="119.00000000000003"/>
      <point x="615" y="367" type="curve"/>
      <point x="569" y="307" type="line"/>
    </contour>
    <contour>
      <point x="506" y="497" type="line"/>
      <point x="516" y="602" type="line" smooth="yes"/>
      <point x="526" y="707"/>
      <point x="471" y="760"/>
      <point x="326" y="760" type="curve" smooth="yes"/>
      <point x="166" y="760"/>
      <point x="129" y="709"/>
      <point x="129" y="604" type="curve" smooth="yes"/>
      <point x="129" y="513"/>
      <point x="170" y="464"/>
      <point x="277" y="338" type="curve" smooth="yes"/>
      <point x="620" y="-68" type="line"/>
      <point x="685" y="-10" type="line"/>
      <point x="348" y="397" type="line" smooth="yes"/>
      <point x="282" y="477"/>
      <point x="228" y="529"/>
      <point x="228" y="591" type="curve" smooth="yes"/>
      <point x="228" y="656"/>
      <point x="259" y="675"/>
      <point x="331" y="675" type="curve" smooth="yes"/>
      <point x="388" y="675"/>
      <point x="424" y="657"/>
      <point x="430" y="601" type="curve" smooth="yes"/>
      <point x="441" y="497" type="line"/>
    </contour>
  </outline>
</glyph>
<glyph name="parenright" format="2">
  <advance width="500"/>
  <unicode hex="0029"/>
  <outline>
    <contour>
      <point x="401" y="322.422" type="curve" smooth="yes"/>
      <point x="401" y="557"/>
      <point x="357.063" y="689.462"/>
      <point x="143" y="755" type="curve"/>
      <point x="122" y="691" type="line"/>
      <point x="293.161" y="608.744"/>
      <point x="307" y="526"/>
      <point x="307" y="327" type="curve" smooth="yes"/>
      <point x="307" y="128"/>
      <point x="293.161" y="39.2377"/>
      <point x="122" y="-39" type="curve"/>
      <point x="143" y="-101" type="line"/>
      <point x="360.426" y="-50.4484"/>
      <point x="401" y="97"/>
    </contour>
  </outline>
</glyph>
<glyph name="comma" format="2">
  <advance width="226"/>
  <unicode hex="002C"/>
  <outline>
    <contour>
      <point x="176" y="50" type="curve" smooth="yes"/>
      <point x="176" y="98"/>
      <point x="162" y="111"/>
      <point x="113" y="111" type="curve" smooth="yes"/>
      <point x="64" y="111"/>
      <point x="50" y="97"/>
      <point x="50" y="49" type="curve" smooth="yes"/>
      <point x="50" y="11"/>
      <point x="65" y="-6"/>
      <point x="93" y="-6" type="curve"/>
      <point x="114" y="-6"/>
      <point x="124" y="-3"/>
      <point x="135" y="3" type="curve"/>
      <point x="122" y="14" type="line"/>
      <point x="115.765" y="-14.7444"/>
      <point x="112.507" y="-52.3399"/>
      <point x="68" y="-103" type="curve"/>
      <point x="68" y="-103"/>
      <point x="91.7557" y="-114.886"/>
      <point x="104.236" y="-121.516" type="curve"/>
      <point x="163.135" y="-82.667"/>
      <point x="176" y="-7"/>
    </contour>
  </outline>
</glyph>
<glyph name="hyphen" format="2">
  <advance width="320"/>
  <unicode hex="002D"/>
  <outline>
    <contour>
      <point x="30" y="229" type="line"/>
      <point x="290" y="229" type="line"/>
      <point x="290" y="319" type="line"/>
      <point x="30" y="319" type="line"/>
    </contour>
  </outline>
</glyph>
<glyph name="period" format="2">
  <advance width="226"/>
  <unicode hex="002E"/>
  <outline>
    <contour>
      <point x="113" y="-13" type="curve" smooth="yes"/>
      <point x="163" y="-13"/>
      <point x="178" y="2"/>
      <point x="178" y="51" type="curve" smooth="yes"/>
      <point x="178" y="100"/>
      <point x="163" y="113"/>
      <point x="113" y="113" type="curve" smooth="yes"/>
      <point x="63" y="113"/>
      <point x="48" y="100"/>
      <point x="48" y="51" type="curve" smooth="yes"/>
      <point x="48" y="2"/>
      <point x="63" y="-13"/>
    </contour>
  </outline>
</glyph>
<glyph name="zero" format="2">
  <advance width="718"/>
  <unicode hex="0030"/>
  <outline>
    <contour>
      <point x="359" y="-18" type="curve" smooth="yes"/>
      <point x="151" y="-18"/>
      <point x="65" y="96"/>
      <point x="65" y="370" type="curve" smooth="yes"/>
      <point x="65" y="645"/>
      <point x="151" y="758"/>
      <point x="359" y="758" type="curve" smooth="yes"/>
      <point x="567" y="758"/>
      <point x="653" y="645"/>
      <point x="653" y="370" type="curve" smooth="yes"/>
      <point x="653" y="96"/>
      <point x="567" y="-18"/>
    </contour>
    <contour>
      <point x="359" y="68" type="curve" smooth="yes"/>
      <point x="499" y="68"/>
      <point x="557" y="156"/>
      <point x="557" y="370" type="curve" smooth="yes"/>
      <point x="557" y="585"/>
      <point x="499" y="672"/>
      <point x="359" y="672" type="curve" smooth="yes"/>
      <point x="219" y="672"/>
      <point x="161" y="585"/>
      <point x="161" y="370" type="curve" smooth="yes"/>
      <point x="161" y="156"/>
      <point x="219" y="68"/>
    </contour>
  </outline>
</glyph>
<glyph name="one" format="2">
  <advance width="507"/>
  <unicode hex="0031"/>
  <outline>
    <contour>
      <point x="467" y="64" type="line"/>
      <point x="267" y="88" type="line"/>
      <point x="306" y="51" type="line"/>
      <point x="306" y="740" type="line"/>
      <point x="209" y="740" type="line"/>
      <point x="44" y="689" type="line"/>
      <point x="44" y="635" type="line"/>
      <point x="239" y="635" type="line"/>
      <point x="209" y="673" type="line"/>
      <point x="209" y="51" type="line"/>
      <point x="239" y="88" type="line"/>
      <point x="40" y="64" type="line"/>
      <point x="40" y="0" type="line"/>
      <point x="467" y="0" type="line"/>
    </contour>
  </outline>
</glyph>
<glyph name="two" format="2">
  <advance width="555"/>
  <unicode hex="0032"/>
  <outline>
    <contour>
      <point x="248" y="358" type="line" smooth="yes"/>
      <point x="357.5541535663896" y="390.8662460699169"/>
      <point x="426.0" y="424.4824120603015"/>
      <point x="426" y="547" type="curve" smooth="yes"/>
      <point x="426.0" y="635.4311926605504"/>
      <point x="387.0" y="666.0"/>
      <point x="263" y="666" type="curve"/>
      <point x="182" y="666"/>
      <point x="114" y="653"/>
      <point x="67" y="617" type="curve"/>
      <point x="132" y="708" type="line"/>
      <point x="118" y="546" type="line"/>
      <point x="49" y="546" type="line"/>
      <point x="42" y="705" type="line"/>
      <point x="96" y="733"/>
      <point x="159" y="757"/>
      <point x="270" y="757" type="curve"/>
      <point x="442.0" y="757.0"/>
      <point x="509.0" y="700.2307692307693"/>
      <point x="509" y="552" type="curve" smooth="yes"/>
      <point x="509.0" y="383.55430711610484"/>
      <point x="445.4170664411507" y="339.40487612604306"/>
      <point x="290" y="295" type="curve" smooth="yes"/>
      <point x="283" y="293" type="line" smooth="yes"/>
      <point x="194" y="268"/>
      <point x="123.0" y="238.0"/>
      <point x="123" y="118" type="curve" smooth="yes"/>
      <point x="123" y="86" type="line"/>
      <point x="486" y="86" type="line"/>
      <point x="418" y="36" type="line"/>
      <point x="441" y="220" type="line"/>
      <point x="507" y="220" type="line"/>
      <point x="515" y="0" type="line"/>
      <point x="40" y="0" type="line"/>
      <point x="40" y="92" type="line" smooth="yes"/>
      <point x="40" y="289.0"/>
      <point x="135" y="324"/>
      <point x="238" y="355" type="curve" smooth="yes"/>
    </contour>
  </outline>
</glyph>
<glyph name="three" format="2">
  <advance width="565"/>
  <unicode hex="0033"/>
  <outline>
    <contour>
      <point x="27" y="103" type="line"/>
      <point x="98" y="77"/>
      <point x="161" y="69.0"/>
      <point x="249" y="69" type="curve"/>
      <point x="378" y="69.0"/>
      <point x="436.0" y="105.0"/>
      <point x="436" y="207" type="curve" smooth="yes"/>
      <point x="437" y="280"/>
      <point x="420" y="334"/>
      <point x="259" y="342" type="curve" smooth="yes"/>
      <point x="164" y="347" type="line"/>
      <point x="164" y="413" type="line"/>
      <point x="259" y="420" type="line" smooth="yes"/>
      <point x="401" y="430"/>
      <point x="420" y="482"/>
      <point x="421" y="548" type="curve" smooth="yes"/>
      <point x="421.0" y="638.0"/>
      <point x="371" y="676.0"/>
      <point x="267" y="676" type="curve"/>
      <point x="208" y="676.0"/>
      <point x="142" y="664"/>
      <point x="80" y="637" type="curve"/>
      <point x="139" y="685" type="line"/>
      <point x="121" y="527" type="line"/>
      <point x="55" y="527" type="line"/>
      <point x="45" y="715" type="line"/>
      <point x="101" y="742"/>
      <point x="167" y="757.0"/>
      <point x="278" y="757" type="curve"/>
      <point x="419" y="757.0"/>
      <point x="524.0" y="702.0"/>
      <point x="524" y="575" type="curve" smooth="yes"/>
      <point x="523" y="469"/>
      <point x="469" y="398"/>
      <point x="377" y="394" type="curve" smooth="yes"/>
      <point x="311" y="391" type="line"/>
      <point x="378" y="425" type="line"/>
      <point x="378" y="362" type="line"/>
      <point x="311" y="379" type="line"/>
      <point x="378" y="378" type="line" smooth="yes"/>
      <point x="485" y="376"/>
      <point x="535" y="318"/>
      <point x="534" y="200" type="curve" smooth="yes"/>
      <point x="534.0" y="48.0"/>
      <point x="438" y="-19"/>
      <point x="254" y="-18" type="curve"/>
      <point x="161" y="-18.0"/>
      <point x="97" y="-8"/>
      <point x="20" y="17" type="curve"/>
      <point x="37" y="191" type="line"/>
      <point x="100" y="191" type="line"/>
      <point x="110" y="70" type="line"/>
    </contour>
  </outline>
</glyph>
<glyph name="four" format="2">
  <advance width="710"/>
  <unicode hex="0034"/>
  <outline>
    <contour>
      <point x="458" y="580" type="line"/>
      <point x="458" y="49" type="line"/>
      <point x="482" y="93" type="line"/>
      <point x="245" y="68" type="line"/>
      <point x="245" y="0" type="line"/>
      <point x="662" y="0" type="line"/>
      <point x="662" y="68" type="line"/>
      <point x="525" y="93" type="line"/>
      <point x="538" y="49" type="line"/>
      <point x="538" y="580" type="line"/>
    </contour>
    <contour>
      <point x="432" y="738" type="line"/>
      <point x="359" y="778" type="line"/>
      <point x="105" y="370" type="line"/>
      <point x="105" y="224" type="line"/>
      <point x="489" y="224" type="line"/>
      <point x="505" y="221" type="line"/>
      <point x="665" y="234" type="line"/>
      <point x="665" y="304" type="line"/>
      <point x="510" y="317" type="line"/>
      <point x="489" y="314" type="line"/>
      <point x="165" y="314" type="line"/>
      <point x="187" y="281" type="line"/>
      <point x="187" y="408" type="line"/>
      <point x="179" y="332" type="line"/>
    </contour>
  </outline>
</glyph>
<glyph name="five" format="2">
  <advance width="634"/>
  <unicode hex="0035"/>
  <outline>
    <contour>
      <point x="164" y="439" type="curve"/>
      <point x="182" y="410" type="line"/>
      <point x="182" y="682" type="line"/>
      <point x="142" y="656" type="line"/>
      <point x="491" y="656" type="line"/>
      <point x="459" y="695" type="line"/>
      <point x="471" y="526" type="line"/>
      <point x="538" y="526" type="line"/>
      <point x="548" y="740" type="line"/>
      <point x="93" y="740" type="line"/>
      <point x="93" y="355" type="line"/>
      <point x="293.816" y="355"/>
      <point x="478" y="353.696"/>
      <point x="478" y="221.776" type="curve" smooth="yes"/>
      <point x="478" y="96"/>
      <point x="418" y="70"/>
      <point x="289" y="70" type="curve" smooth="yes"/>
      <point x="244" y="70"/>
      <point x="184" y="79"/>
      <point x="152" y="88" type="curve"/>
      <point x="142" y="231" type="line"/>
      <point x="75" y="231" type="line"/>
      <point x="65" y="17" type="line"/>
      <point x="138" y="0"/>
      <point x="219" y="-18"/>
      <point x="323" y="-18" type="curve" smooth="yes"/>
      <point x="470" y="-18"/>
      <point x="569" y="39"/>
      <point x="569" y="223.8" type="curve" smooth="yes"/>
      <point x="569" y="400"/>
      <point x="479" y="439"/>
    </contour>
  </outline>
</glyph>
<glyph name="six" format="2">
  <advance width="676"/>
  <unicode hex="0036"/>
  <outline>
    <contour>
      <point x="119" y="330" type="line"/>
      <point x="139" y="362" type="line"/>
      <point x="216" y="362" type="line"/>
      <point x="181" y="333" type="line"/>
      <point x="191" y="408"/>
      <point x="227" y="424"/>
      <point x="381.0" y="424" type="curve"/>
      <point x="539" y="424"/>
      <point x="611.0" y="391.0"/>
      <point x="611" y="225" type="curve" smooth="yes"/>
      <point x="611.0" y="55.0"/>
      <point x="544" y="-18"/>
      <point x="345.0" y="-18" type="curve" smooth="yes"/>
      <point x="125" y="-18"/>
      <point x="65" y="55"/>
      <point x="65" y="369" type="curve" smooth="yes"/>
      <point x="65" y="699"/>
      <point x="153.0" y="758"/>
      <point x="345.0" y="758" type="curve" smooth="yes"/>
      <point x="464.0" y="758.0"/>
      <point x="543" y="736"/>
      <point x="597" y="713" type="curve"/>
      <point x="580" y="530" type="line"/>
      <point x="526" y="530" type="line"/>
      <point x="509" y="705" type="line"/>
      <point x="556" y="634" type="line"/>
      <point x="518" y="656"/>
      <point x="442.0" y="672.0"/>
      <point x="364.0" y="672" type="curve"/>
      <point x="207.0" y="672"/>
      <point x="159" y="611"/>
      <point x="159" y="370" type="curve" smooth="yes"/>
      <point x="159" y="115"/>
      <point x="230.0" y="68"/>
      <point x="345.0" y="68" type="curve" smooth="yes"/>
      <point x="477.0" y="68.0"/>
      <point x="519.0" y="112.0"/>
      <point x="519" y="216" type="curve" smooth="yes"/>
      <point x="519.0" y="316.0"/>
      <point x="487.0" y="341.0"/>
      <point x="345.0" y="341" type="curve" smooth="yes"/>
      <point x="244.0" y="341"/>
      <point x="186" y="325"/>
      <point x="135" y="290" type="curve"/>
    </contour>
  </outline>
</glyph>
<glyph name="seven" format="2">
  <advance width="603"/>
  <unicode hex="0037"/>
  <outline>
    <contour>
      <point x="40" y="740" type="line"/>
      <point x="49.6733" y="526.492" type="line"/>
      <point x="116.673" y="526.492" type="line"/>
      <point x="131" y="718" type="line"/>
      <point x="95" y="656" type="line"/>
      <point x="526" y="656" type="line"/>
      <point x="528" y="729" type="line"/>
      <point x="169" y="0" type="line"/>
      <point x="272" y="0" type="line"/>
      <point x="583" y="641" type="line"/>
      <point x="583" y="740" type="line"/>
    </contour>
    <contour>
      <point x="483" y="608" type="line"/>
      <point x="540" y="707" type="line"/>
      <point x="483" y="703" type="line"/>
    </contour>
    <contour>
      <point x="257" y="92" type="line"/>
      <point x="58" y="68" type="line"/>
      <point x="58" y="0" type="line"/>
      <point x="485" y="0" type="line"/>
      <point x="485" y="68" type="line"/>
      <point x="285" y="92" type="line"/>
    </contour>
  </outline>
</glyph>
<glyph name="eight" format="2">
  <advance width="660"/>
  <unicode hex="0038"/>
  <outline>
    <contour>
      <point x="325" y="66" type="curve" smooth="yes"/>
      <point x="458.0" y="66.0"/>
      <point x="524.0" y="98.22222222222221"/>
      <point x="524" y="211" type="curve" smooth="yes"/>
      <point x="525" y="282"/>
      <point x="514" y="334"/>
      <point x="358" y="343" type="curve" smooth="yes"/>
      <point x="271" y="348" type="line"/>
      <point x="271" y="412" type="line"/>
      <point x="358" y="419" type="line" smooth="yes"/>
      <point x="495" y="429"/>
      <point x="509" y="479"/>
      <point x="510" y="544" type="curve" smooth="yes"/>
      <point x="510.0" y="650.0327868852459"/>
      <point x="442.0" y="676.0"/>
      <point x="329" y="676" type="curve" smooth="yes"/>
      <point x="207.0" y="676.0"/>
      <point x="145.0" y="650.0327868852459"/>
      <point x="145" y="544" type="curve" smooth="yes"/>
      <point x="146" y="479"/>
      <point x="160" y="429"/>
      <point x="297" y="419" type="curve" smooth="yes"/>
      <point x="384" y="412" type="line"/>
      <point x="384" y="348" type="line"/>
      <point x="297" y="343" type="line" smooth="yes"/>
      <point x="141" y="334"/>
      <point x="130" y="282"/>
      <point x="131" y="211" type="curve" smooth="yes"/>
      <point x="131.0" y="98.22222222222221"/>
      <point x="212.0" y="66.0"/>
    </contour>
    <contour>
      <point x="325" y="-18" type="curve" smooth="yes"/>
      <point x="139.0" y="-18.0"/>
      <point x="36.0" y="41.688679245283026"/>
      <point x="36" y="204" type="curve" smooth="yes"/>
      <point x="35.005746690648536" y="318.3391305754186"/>
      <point x="82.99329913314767" y="375.39989690974073"/>
      <point x="187" y="377" type="curve" smooth="yes"/>
      <point x="252" y="378" type="line"/>
      <point x="187" y="362" type="line"/>
      <point x="187" y="424" type="line"/>
      <point x="252" y="391" type="line"/>
      <point x="188" y="394" type="line" smooth="yes"/>
      <point x="99.00888441326607" y="398.17145854312815"/>
      <point x="45.99435081648836" y="467.58186590169925"/>
      <point x="45" y="570" type="curve" smooth="yes"/>
      <point x="45.0" y="717.9545454545455"/>
      <point x="197.9995539783932" y="754.9999965952549"/>
      <point x="329" y="756" type="curve" smooth="yes"/>
      <point x="458.0" y="756.0"/>
      <point x="610.0" y="716.8977272727273"/>
      <point x="610" y="570" type="curve" smooth="yes"/>
      <point x="609.0056491835117" y="467.58186590169925"/>
      <point x="555.9911155867339" y="398.17145854312815"/>
      <point x="467" y="394" type="curve" smooth="yes"/>
      <point x="403" y="391" type="line"/>
      <point x="468" y="424" type="line"/>
      <point x="468" y="362" type="line"/>
      <point x="403" y="378" type="line"/>
      <point x="468" y="377" type="line" smooth="yes"/>
      <point x="572.0067008668523" y="375.39989690974073"/>
      <point x="619.9942533093515" y="318.3391305754186"/>
      <point x="619" y="204" type="curve" smooth="yes"/>
      <point x="619.0" y="40.641509433962284"/>
      <point x="494.0" y="-18.0"/>
    </contour>
  </outline>
</glyph>
<glyph name="nine" format="2">
  <advance width="676"/>
  <unicode hex="0039"/>
  <outline>
    <contour>
      <point x="557" y="385" type="line"/>
      <point x="537" y="353" type="line"/>
      <point x="460" y="353" type="line"/>
      <point x="495" y="382" type="line"/>
      <point x="485" y="307"/>
      <point x="449" y="286"/>
      <point x="295" y="286" type="curve" smooth="yes"/>
      <point x="137" y="286"/>
      <point x="65" y="334"/>
      <point x="65" y="505.023" type="curve" smooth="yes"/>
      <point x="65" y="670"/>
      <point x="132" y="758"/>
      <point x="331" y="758" type="curve" smooth="yes"/>
      <point x="551" y="758"/>
      <point x="611" y="685"/>
      <point x="611" y="371" type="curve" smooth="yes"/>
      <point x="611" y="132.245"/>
      <point x="523" y="-18"/>
      <point x="333.753" y="-18" type="curve" smooth="yes"/>
      <point x="212" y="-18"/>
      <point x="125.223" y="6.42026"/>
      <point x="70.8557" y="54.6611" type="curve"/>
      <point x="78.0786" y="215.281" type="line"/>
      <point x="146.603" y="214.637" type="line"/>
      <point x="160.307" y="32.1852" type="line"/>
      <point x="119.741" y="117.155" type="line"/>
      <point x="157.741" y="95.1549"/>
      <point x="234" y="70"/>
      <point x="312" y="70" type="curve" smooth="yes"/>
      <point x="478" y="70"/>
      <point x="517" y="214"/>
      <point x="517" y="370" type="curve" smooth="yes"/>
      <point x="517" y="623"/>
      <point x="446" y="670"/>
      <point x="334.318" y="670" type="curve" smooth="yes"/>
      <point x="199" y="670"/>
      <point x="157" y="601"/>
      <point x="157" y="493.144" type="curve" smooth="yes"/>
      <point x="157" y="399"/>
      <point x="189" y="369"/>
      <point x="321.305" y="369" type="curve" smooth="yes"/>
      <point x="432" y="369"/>
      <point x="490" y="390"/>
      <point x="541" y="425" type="curve"/>
    </contour>
  </outline>
</glyph>
<glyph name="semicolon" format="2">
  <advance width="226"/>
  <unicode hex="003B"/>
  <outline>
    <contour>
      <point x="113" y="385" type="curve" smooth="yes"/>
      <point x="163" y="385"/>
      <point x="176" y="398"/>
      <point x="176" y="447" type="curve" smooth="yes"/>
      <point x="176" y="496"/>
      <point x="163" y="509"/>
      <point x="113" y="509" type="curve" smooth="yes"/>
      <point x="63" y="509"/>
      <point x="50" y="496"/>
      <point x="50" y="447" type="curve" smooth="yes"/>
      <point x="50" y="398"/>
      <point x="63" y="385"/>
    </contour>
    <contour>
      <point x="176" y="50" type="curve" smooth="yes"/>
      <point x="176" y="98"/>
      <point x="162" y="111"/>
      <point x="113" y="111" type="curve" smooth="yes"/>
      <point x="64" y="111"/>
      <point x="50" y="97"/>
      <point x="50" y="49" type="curve" smooth="yes"/>
      <point x="50" y="11"/>
      <point x="65" y="-6"/>
      <point x="93" y="-6" type="curve"/>
      <point x="114" y="-6"/>
      <point x="124" y="-3"/>
      <point x="135" y="3" type="curve"/>
      <point x="122" y="14" type="line"/>
      <point x="115.765" y="-14.7444"/>
      <point x="112.507" y="-52.3399"/>
      <point x="68" y="-103" type="curve" smooth="yes"/>
      <point x="68" y="-103"/>
      <point x="91.7557" y="-114.886"/>
      <point x="104.236" y="-121.516" type="curve"/>
      <point x="163.135" y="-82.667"/>
      <point x="176" y="-7"/>
    </contour>
  </outline>
</glyph>
<glyph name="question" format="2">
  <advance width="509"/>
  <unicode hex="003F"/>
  <outline>
    <contour>
      <point x="185" y="-23" type="curve" smooth="yes"/>
      <point x="235" y="-23"/>
      <point x="248" y="-10"/>
      <point x="248" y="39" type="curve" smooth="yes"/>
      <point x="248" y="88"/>
      <point x="235" y="101"/>
      <point x="185" y="101" type="curve" smooth="yes"/>
      <point x="135" y="101"/>
      <point x="122" y="88"/>
      <point x="122" y="39" type="curve" smooth="yes"/>
      <point x="122" y="-10"/>
      <point x="135" y="-23"/>
    </contour>
    <contour>
      <point x="219" y="285" type="line"/>
      <point x="294" y="290" type="line" smooth="yes"/>
      <point x="430" y="299"/>
      <point x="511" y="369"/>
      <point x="511" y="549" type="curve" smooth="yes"/>
      <point x="511" y="702"/>
      <point x="411" y="757"/>
      <point x="270" y="757" type="curve" smooth="yes"/>
      <point x="159" y="757"/>
      <point x="98" y="742"/>
      <point x="42" y="715" type="curve"/>
      <point x="42" y="547" type="line"/>
      <point x="118" y="547" type="line"/>
      <point x="138" y="687" type="line"/>
      <point x="101" y="648" type="line"/>
      <point x="173" y="670"/>
      <point x="217" y="673"/>
      <point x="258" y="673" type="curve" smooth="yes"/>
      <point x="362" y="673"/>
      <point x="407" y="635"/>
      <point x="408" y="525" type="curve"/>
      <point x="408" y="421"/>
      <point x="393" y="360"/>
      <point x="223" y="348" type="curve"/>
      <point x="164" y="348" type="line" smooth="yes"/>
      <point x="151" y="348"/>
      <point x="145" y="342"/>
      <point x="146" y="329" type="curve" smooth="yes"/>
      <point x="157" y="161" type="line"/>
      <point x="218" y="161" type="line"/>
      <point x="235" y="321" type="line"/>
    </contour>
  </outline>
</glyph>
<glyph name="A" format="2">
  <advance width="666"/>
  <unicode hex="0041"/>
  <outline>
    <contour>
      <point x="389.444" y="656" type="line"/>
      <point x="546.397" y="72.4294" type="line"/>
      <point x="554.912" y="86.6822" type="line"/>
      <point x="465" y="64" type="line"/>
      <point x="465" y="0" type="line"/>
      <point x="719" y="0" type="line"/>
      <point x="719" y="64" type="line"/>
      <point x="610.251" y="93.6074" type="line"/>
      <point x="656.263" y="47.2853" type="line"/>
      <point x="459" y="740" type="line"/>
      <point x="162.362" y="740" type="line"/>
      <point x="162.362" y="676" type="line"/>
      <point x="258.229" y="656" type="line"/>
      <point x="92.4759" y="72.4928" type="line"/>
      <point x="114.761" y="88.8441" type="line"/>
      <point x="22" y="63.7435" type="line"/>
      <point x="22" y="0" type="line"/>
      <point x="274" y="0" type="line"/>
      <point x="274" y="64" type="line"/>
      <point x="187.362" y="86.8441" type="line"/>
      <point x="195.946" y="72.4005" type="line"/>
      <point x="351.814" y="656" type="line"/>
    </contour>
    <contour>
      <point x="195.946" y="257.973" type="line"/>
      <point x="537.5" y="257.973" type="line"/>
      <point x="537.5" y="343" type="line"/>
      <point x="195.946" y="343" type="line"/>
    </contour>
  </outline>
  <guideline angle="0" x="0" y="676"/>
  <guideline angle="0" x="0" y="656"/>
  <guideline angle="0" x="0" y="84"/>
</glyph>
<glyph name="B" format="2">
  <advance width="691"/>
  <unicode hex="0042"/>
  <outline>
    <contour>
      <point x="405" y="740" type="line"/>
      <point x="536" y="740"/>
      <point x="591" y="692"/>
      <point x="591" y="577" type="curve" smooth="yes"/>
      <point x="591.0" y="472.26404494382024"/>
      <point x="544" y="405"/>
      <point x="465" y="396" type="curve" smooth="yes"/>
      <point x="439" y="393" type="line"/>
      <point x="483" y="424" type="line"/>
      <point x="483" y="361" type="line"/>
      <point x="439.0" y="379" type="line"/>
      <point x="466.0" y="378" type="line" smooth="yes"/>
      <point x="580.9956930148008" y="373.74090025871106"/>
      <point x="636.0" y="320.30270984798415"/>
      <point x="636" y="202" type="curve" smooth="yes"/>
      <point x="636.0" y="62.0"/>
      <point x="554" y="0"/>
      <point x="373" y="0" type="curve"/>
      <point x="39" y="0" type="line"/>
      <point x="39" y="64" type="line"/>
      <point x="147" y="93" type="line"/>
      <point x="113" y="65" type="line"/>
      <point x="113" y="690" type="line"/>
      <point x="142" y="648" type="line"/>
      <point x="39" y="676" type="line"/>
      <point x="39" y="740" type="line"/>
    </contour>
    <contour>
      <point x="176" y="662" type="line"/>
      <point x="211" y="698" type="line"/>
      <point x="211" y="54" type="line"/>
      <point x="175" y="78" type="line"/>
      <point x="403" y="78" type="line"/>
      <point x="501" y="78"/>
      <point x="545" y="115"/>
      <point x="545" y="222" type="curve" smooth="yes"/>
      <point x="545" y="307"/>
      <point x="501" y="346"/>
      <point x="417" y="346" type="curve"/>
      <point x="191" y="346" type="line"/>
      <point x="191" y="421" type="line"/>
      <point x="400" y="421" type="line"/>
      <point x="463" y="421"/>
      <point x="501" y="470"/>
      <point x="501" y="549" type="curve"/>
      <point x="501" y="629"/>
      <point x="465" y="662"/>
      <point x="397" y="662" type="curve"/>
    </contour>
  </outline>
</glyph>
<glyph name="C" format="2">
  <advance width="671"/>
  <unicode hex="0043"/>
  <outline>
    <contour>
      <point x="56" y="361" type="curve" smooth="yes"/>
      <point x="56" y="645"/>
      <point x="154" y="758"/>
      <point x="371" y="758" type="curve" smooth="yes"/>
      <point x="488" y="758"/>
      <point x="575" y="738"/>
      <point x="613" y="701" type="curve"/>
      <point x="600" y="488" type="line"/>
      <point x="528" y="488" type="line"/>
      <point x="519" y="651" type="line"/>
      <point x="558" y="624" type="line"/>
      <point x="491" y="656"/>
      <point x="435" y="656"/>
      <point x="375" y="656" type="curve" smooth="yes"/>
      <point x="213" y="656"/>
      <point x="141" y="581"/>
      <point x="141" y="374" type="curve" smooth="yes"/>
      <point x="141" y="155"/>
      <point x="211" y="87"/>
      <point x="380" y="87" type="curve" smooth="yes"/>
      <point x="466" y="87"/>
      <point x="532" y="98"/>
      <point x="597" y="120" type="curve"/>
      <point x="625" y="42" type="line"/>
      <point x="538" y="1"/>
      <point x="461" y="-16"/>
      <point x="362" y="-16" type="curve" smooth="yes"/>
      <point x="151" y="-16"/>
      <point x="56" y="104"/>
    </contour>
  </outline>
</glyph>
<glyph name="D" format="2">
  <advance width="754"/>
  <unicode hex="0044"/>
  <outline>
    <contour>
      <point x="317" y="-1" type="line" smooth="yes"/>
      <point x="591" y="-2"/>
      <point x="697" y="104"/>
      <point x="697" y="370" type="curve" smooth="yes"/>
      <point x="697" y="638"/>
      <point x="595" y="740"/>
      <point x="327" y="740" type="curve" smooth="yes"/>
      <point x="53" y="740" type="line"/>
      <point x="53" y="660" type="line"/>
      <point x="190" y="660" type="line"/>
      <point x="127" y="696" type="line"/>
      <point x="127" y="65" type="line"/>
      <point x="161" y="90" type="line"/>
      <point x="53" y="64" type="line"/>
      <point x="53" y="0" type="line"/>
    </contour>
    <contour>
      <point x="259" y="661" type="line" smooth="yes"/>
      <point x="502" y="665"/>
      <point x="602" y="622"/>
      <point x="602" y="352" type="curve" smooth="yes"/>
      <point x="602" y="114"/>
      <point x="502" y="75"/>
      <point x="258" y="83" type="curve" smooth="yes"/>
      <point x="178" y="85" type="line"/>
      <point x="213" y="54" type="line"/>
      <point x="213" y="704" type="line"/>
      <point x="189" y="660" type="line"/>
    </contour>
  </outline>
</glyph>
<glyph name="E" format="2">
  <advance width="614"/>
  <unicode hex="0045"/>
  <outline>
    <contour>
      <point x="147" y="326" type="line"/>
      <point x="147" y="421" type="line"/>
      <point x="441" y="400" type="line"/>
      <point x="441" y="339" type="line"/>
    </contour>
    <contour>
      <point x="484" y="48" type="line"/>
      <point x="534" y="224" type="line"/>
      <point x="582" y="224" type="line"/>
      <point x="582" y="0" type="line"/>
      <point x="23" y="0" type="line"/>
      <point x="23" y="64" type="line"/>
      <point x="131.644" y="94.3791" type="line"/>
      <point x="96" y="50" type="line"/>
      <point x="96" y="679" type="line"/>
      <point x="126" y="649" type="line"/>
      <point x="22" y="649" type="line"/>
      <point x="22" y="740" type="line"/>
      <point x="586" y="740" type="line"/>
      <point x="578" y="516" type="line"/>
      <point x="523" y="516" type="line"/>
      <point x="493" y="687" type="line"/>
      <point x="533" y="655" type="line"/>
      <point x="157" y="655" type="line"/>
      <point x="194" y="692" type="line"/>
      <point x="194" y="52" type="line"/>
      <point x="158" y="84" type="line"/>
      <point x="516" y="84" type="line"/>
    </contour>
  </outline>
  <guideline angle="0" x="0" y="516"/>
  <guideline angle="0" x="0" y="224"/>
  <guideline angle="90" x="22" y="0"/>
</glyph>
<glyph name="F" format="2">
  <advance width="639"/>
  <unicode hex="0046"/>
  <outline>
    <contour>
      <point x="167" y="313" type="line"/>
      <point x="167" y="408" type="line"/>
      <point x="478" y="387" type="line"/>
      <point x="478" y="326" type="line"/>
    </contour>
    <contour>
      <point x="393" y="0" type="line"/>
      <point x="46" y="0" type="line"/>
      <point x="46" y="64" type="line"/>
      <point x="147.775" y="92" type="line"/>
      <point x="120" y="60" type="line"/>
      <point x="120" y="684" type="line"/>
      <point x="150" y="655" type="line"/>
      <point x="50" y="655" type="line"/>
      <point x="50" y="740" type="line"/>
      <point x="605" y="740" type="line"/>
      <point x="597" y="516" type="line"/>
      <point x="542" y="516" type="line"/>
      <point x="511" y="692" type="line"/>
      <point x="548" y="655" type="line"/>
      <point x="181" y="655" type="line"/>
      <point x="218" y="697" type="line"/>
      <point x="218" y="50" type="line"/>
      <point x="186" y="87" type="line"/>
      <point x="393" y="64" type="line"/>
    </contour>
  </outline>
  <guideline angle="0" x="0" y="655"/>
  <guideline angle="0" x="0" y="516"/>
  <guideline angle="0" x="0" y="84"/>
</glyph>
<glyph name="G" format="2">
  <advance width="692"/>
  <unicode hex="0047"/>
  <outline>
    <contour>
      <point x="599" y="175" type="curve"/>
      <point x="570" y="116" type="line"/>
      <point x="570" y="322" type="line"/>
      <point x="599" y="270" type="line"/>
      <point x="369" y="284" type="line"/>
      <point x="369" y="352" type="line"/>
      <point x="661" y="356" type="line"/>
      <point x="661" y="123" type="line"/>
      <point x="590" y="20"/>
      <point x="512" y="-18"/>
      <point x="373" y="-18" type="curve" smooth="yes"/>
      <point x="151" y="-18"/>
      <point x="55" y="95"/>
      <point x="55" y="370" type="curve" smooth="yes"/>
      <point x="55" y="639"/>
      <point x="158" y="758"/>
      <point x="389" y="758" type="curve" smooth="yes"/>
      <point x="505.0" y="758.0"/>
      <point x="585" y="723"/>
      <point x="624" y="685" type="curve"/>
      <point x="606" y="490" type="line"/>
      <point x="539" y="490" type="line"/>
      <point x="523" y="687" type="line"/>
      <point x="583" y="606" type="line"/>
      <point x="544" y="643"/>
      <point x="483.0" y="672.0"/>
      <point x="389" y="672" type="curve" smooth="yes"/>
      <point x="224" y="672"/>
      <point x="150" y="579"/>
      <point x="150" y="370" type="curve" smooth="yes"/>
      <point x="150" y="155"/>
      <point x="228" y="68"/>
      <point x="377" y="68" type="curve"/>
      <point x="483" y="68"/>
      <point x="538" y="95"/>
    </contour>
  </outline>
</glyph>
<glyph name="H" format="2">
  <advance width="759"/>
  <unicode hex="0048"/>
  <outline>
    <contour>
      <point x="153" y="336" type="line"/>
      <point x="153" y="416" type="line"/>
      <point x="598" y="416" type="line"/>
      <point x="598" y="336" type="line"/>
    </contour>
    <contour>
      <point x="184" y="698" type="line"/>
      <point x="184" y="57" type="line"/>
      <point x="152.437" y="93" type="line"/>
      <point x="261" y="64" type="line"/>
      <point x="261" y="0" type="line"/>
      <point x="12" y="0" type="line"/>
      <point x="12" y="64" type="line"/>
      <point x="120" y="93" type="line"/>
      <point x="86" y="65" type="line"/>
      <point x="86" y="690" type="line"/>
      <point x="115.425" y="647.667" type="line"/>
      <point x="12" y="676" type="line"/>
      <point x="12" y="740" type="line"/>
      <point x="261" y="740" type="line"/>
      <point x="261" y="676" type="line"/>
      <point x="151.883" y="647.667" type="line"/>
    </contour>
    <contour>
      <point x="659" y="693" type="line"/>
      <point x="659" y="53" type="line"/>
      <point x="621.861" y="94.1806" type="line"/>
      <point x="733" y="64" type="line"/>
      <point x="733" y="0" type="line"/>
      <point x="484" y="0" type="line"/>
      <point x="484" y="64" type="line"/>
      <point x="587" y="91" type="line"/>
      <point x="561" y="65" type="line"/>
      <point x="561" y="686" type="line"/>
      <point x="594.974" y="647" type="line"/>
      <point x="484" y="676" type="line"/>
      <point x="484" y="740" type="line"/>
      <point x="733" y="740" type="line"/>
      <point x="733" y="676" type="line"/>
      <point x="625" y="647" type="line"/>
    </contour>
  </outline>
  <guideline angle="0" x="0" y="84"/>
  <guideline angle="0" x="0" y="676"/>
  <guideline angle="0" x="0" y="656"/>
</glyph>
<glyph name="I" format="2">
  <advance width="347"/>
  <unicode hex="0049"/>
  <outline>
    <contour>
      <point x="222.363" y="34.7443" type="line"/>
      <point x="180.419" y="91.7797" type="line"/>
      <point x="335" y="64" type="line"/>
      <point x="335.363" y="-0.255692" type="line"/>
      <point x="13.363" y="-0.255692" type="line"/>
      <point x="13.363" y="63.7443" type="line"/>
      <point x="150.242" y="89.4887" type="line"/>
      <point x="124.363" y="46.7443" type="line"/>
      <point x="124" y="713.851" type="line"/>
      <point x="152.169" y="651.491" type="line"/>
      <point x="13" y="676" type="line"/>
      <point x="13.363" y="739.744" type="line"/>
      <point x="335.363" y="739.744" type="line"/>
      <point x="335.363" y="675.744" type="line"/>
      <point x="189.883" y="649.667" type="line"/>
      <point x="221.719" y="715.184" type="line"/>
    </contour>
  </outline>
</glyph>
<glyph name="J" format="2">
  <advance width="512"/>
  <unicode hex="004A"/>
  <guideline x="0" y="676" angle="0" identifier="tq7Jj8fWAq"/>
  <guideline x="0" y="656" angle="0" identifier="Wy2OUAkG7K"/>
  <outline>
    <contour>
      <point x="407" y="243" type="curve" smooth="yes"/>
      <point x="407" y="693" type="line"/>
      <point x="373" y="649" type="line"/>
      <point x="505" y="676" type="line"/>
      <point x="505" y="740" type="line"/>
      <point x="152" y="740" type="line"/>
      <point x="152" y="674" type="line"/>
      <point x="343" y="650" type="line"/>
      <point x="309" y="686" type="line"/>
      <point x="309" y="248" type="line" smooth="yes"/>
      <point x="309.0" y="133"/>
      <point x="286" y="74"/>
      <point x="186" y="74" type="curve" smooth="yes"/>
      <point x="124" y="74.0"/>
      <point x="89" y="95"/>
      <point x="43" y="141" type="curve"/>
      <point x="-19" y="74" type="line"/>
      <point x="50" y="5"/>
      <point x="103" y="-18"/>
      <point x="196" y="-18" type="curve"/>
      <point x="343.0" y="-18.0"/>
      <point x="407" y="74.0"/>
    </contour>
  </outline>
</glyph>
<glyph name="K" format="2">
  <advance width="706"/>
  <unicode hex="004B"/>
  <guideline x="0" y="84" angle="0" identifier="wL70YQliz8"/>
  <guideline x="699" y="0" angle="90" identifier="1bI6A5O3Ys"/>
  <guideline x="554" y="654" angle="0" identifier="rM3T8kvtfg"/>
  <outline>
    <contour>
      <point x="421" y="0" type="line"/>
      <point x="421" y="63" type="line"/>
      <point x="537" y="87" type="line"/>
      <point x="535" y="59" type="line"/>
      <point x="353" y="354" type="line"/>
      <point x="405" y="323" type="line"/>
      <point x="187" y="323" type="line"/>
      <point x="187" y="407" type="line"/>
      <point x="413" y="407" type="line"/>
      <point x="357" y="381" type="line"/>
      <point x="515" y="652" type="line"/>
      <point x="408" y="676" type="line"/>
      <point x="408" y="740" type="line"/>
      <point x="691" y="740" type="line"/>
      <point x="691" y="676" type="line"/>
      <point x="600" y="650" type="line"/>
      <point x="416" y="336" type="line"/>
      <point x="423" y="386" type="line"/>
      <point x="623" y="60" type="line"/>
      <point x="567" y="89" type="line"/>
      <point x="712" y="64" type="line"/>
      <point x="712" y="0" type="line"/>
    </contour>
    <contour>
      <point x="405" y="317" type="line"/>
      <point x="405" y="421" type="line"/>
      <point x="442" y="421" type="line"/>
      <point x="442" y="317" type="line"/>
    </contour>
    <contour>
      <point x="213" y="698" type="line"/>
      <point x="213" y="57" type="line"/>
      <point x="181" y="93" type="line"/>
      <point x="295" y="64" type="line"/>
      <point x="295" y="0" type="line"/>
      <point x="49" y="0" type="line"/>
      <point x="49" y="64" type="line"/>
      <point x="159" y="93" type="line"/>
      <point x="128" y="65" type="line"/>
      <point x="128" y="690" type="line"/>
      <point x="157" y="648" type="line"/>
      <point x="49" y="676" type="line"/>
      <point x="49" y="740" type="line"/>
      <point x="295" y="740" type="line"/>
      <point x="295" y="676" type="line"/>
      <point x="181" y="648" type="line"/>
    </contour>
  </outline>
</glyph>
<glyph name="L" format="2">
  <advance width="611"/>
  <unicode hex="004C"/>
  <outline>
    <contour>
      <point x="578" y="0" type="line"/>
      <point x="30" y="0" type="line"/>
      <point x="30" y="64" type="line"/>
      <point x="157" y="93" type="line"/>
      <point x="123" y="65" type="line"/>
      <point x="123" y="690" type="line"/>
      <point x="152" y="648" type="line"/>
      <point x="30" y="676" type="line"/>
      <point x="30" y="740" type="line"/>
      <point x="379" y="740" type="line"/>
      <point x="379" y="676" type="line"/>
      <point x="180" y="646" type="line"/>
      <point x="212" y="698" type="line"/>
      <point x="212" y="57" type="line"/>
      <point x="180" y="84" type="line"/>
      <point x="521" y="84" type="line"/>
      <point x="482" y="44" type="line"/>
      <point x="512" y="219" type="line"/>
      <point x="578" y="219" type="line"/>
    </contour>
  </outline>
</glyph>
<glyph name="M" format="2">
  <advance width="845"/>
  <unicode hex="004D"/>
  <outline>
    <contour>
      <point x="657" y="630" type="line"/>
      <point x="643" y="630" type="line"/>
      <point x="643" y="72" type="line"/>
      <point x="654.551" y="87.2535" type="line"/>
      <point x="572" y="64" type="line"/>
      <point x="572" y="0" type="line"/>
      <point x="815" y="0" type="line"/>
      <point x="815" y="64" type="line"/>
      <point x="729.415" y="87.1258" type="line"/>
      <point x="741" y="71.9955" type="line"/>
      <point x="741" y="656" type="line"/>
      <point x="815" y="656" type="line"/>
      <point x="815" y="740" type="line"/>
      <point x="600" y="740" type="line"/>
      <point x="385.638" y="104.281" type="line"/>
      <point x="434.638" y="104.281" type="line"/>
      <point x="233.026" y="739.922" type="line"/>
      <point x="18" y="740" type="line"/>
      <point x="18" y="656" type="line"/>
      <point x="92" y="656" type="line"/>
      <point x="92" y="71.8265" type="line"/>
      <point x="103.58" y="86.9717" type="line"/>
      <point x="19" y="64" type="line"/>
      <point x="19" y="0" type="line"/>
      <point x="253" y="0" type="line"/>
      <point x="253" y="64" type="line"/>
      <point x="170.448" y="87.2119" type="line"/>
      <point x="182" y="71.9637" type="line"/>
      <point x="182" y="630" type="line"/>
      <point x="168" y="630" type="line"/>
      <point x="374" y="5" type="line"/>
      <point x="445" y="5" type="line"/>
    </contour>
  </outline>
  <guideline angle="0" x="0" y="84"/>
  <guideline angle="0" x="0" y="656"/>
</glyph>
<glyph name="N" format="2">
  <advance width="821"/>
  <unicode hex="004E"/>
  <guideline x="0" y="676" angle="0" identifier="OENE0EJGcQ"/>
  <guideline x="0" y="656" angle="0" identifier="You8bXt4On"/>
  <guideline x="0" y="84" angle="0" identifier="KmJU5bU8Cq"/>
  <outline>
    <contour>
      <point x="511" y="741" type="line"/>
      <point x="511" y="676" type="line"/>
      <point x="639" y="651" type="line"/>
      <point x="620" y="686" type="line"/>
      <point x="620" y="65" type="line"/>
      <point x="636" y="37" type="line"/>
      <point x="284" y="740" type="line"/>
      <point x="50" y="740" type="line"/>
      <point x="50" y="676" type="line"/>
      <point x="153" y="648" type="line"/>
      <point x="124" y="690" type="line"/>
      <point x="124" y="65" type="line"/>
      <point x="158" y="93" type="line"/>
      <point x="50" y="64" type="line"/>
      <point x="50" y="0" type="line"/>
      <point x="303" y="0" type="line"/>
      <point x="303" y="64" type="line"/>
      <point x="171" y="95" type="line"/>
      <point x="201" y="57" type="line"/>
      <point x="201" y="698" type="line"/>
      <point x="190" y="701" type="line"/>
      <point x="540" y="0" type="line"/>
      <point x="697" y="0" type="line"/>
      <point x="697" y="693" type="line"/>
      <point x="663" y="647" type="line"/>
      <point x="771" y="676" type="line"/>
      <point x="771" y="740" type="line"/>
    </contour>
    <contour>
      <point x="159" y="641" type="line"/>
      <point x="249" y="641" type="line"/>
      <point x="249" y="721" type="line"/>
      <point x="159" y="721" type="line"/>
    </contour>
    <contour>
      <point x="569" y="11" type="line"/>
      <point x="649" y="11" type="line"/>
      <point x="649" y="101" type="line"/>
      <point x="569" y="101" type="line"/>
    </contour>
  </outline>
</glyph>
<glyph name="O" format="2">
  <advance width="758"/>
  <unicode hex="004F"/>
  <outline>
    <contour>
      <point x="379" y="-18" type="curve" smooth="yes"/>
      <point x="151" y="-18.0"/>
      <point x="56.0" y="96"/>
      <point x="56" y="370" type="curve" smooth="yes"/>
      <point x="56" y="645"/>
      <point x="151" y="758.0"/>
      <point x="379" y="758" type="curve" smooth="yes"/>
      <point x="607.0" y="758.0"/>
      <point x="702.0" y="645"/>
      <point x="702" y="370" type="curve" smooth="yes"/>
      <point x="702.0" y="96"/>
      <point x="607.0" y="-18.0"/>
    </contour>
    <contour>
      <point x="379.0" y="69" type="curve" smooth="yes"/>
      <point x="540.0" y="69.0"/>
      <point x="607.0" y="146.74172185430464"/>
      <point x="607" y="370.0" type="curve" smooth="yes"/>
      <point x="607.0" y="594.2549668874173"/>
      <point x="540.0" y="671.0"/>
      <point x="379.0" y="671" type="curve" smooth="yes"/>
      <point x="218.0" y="671.0"/>
      <point x="151.0" y="594.2549668874173"/>
      <point x="151" y="370.0" type="curve" smooth="yes"/>
      <point x="151.0" y="146.74172185430464"/>
      <point x="218.0" y="69.0"/>
    </contour>
  </outline>
</glyph>
<glyph name="P" format="2">
  <advance width="684"/>
  <unicode hex="0050"/>
  <outline>
    <contour>
      <point x="355" y="660" type="curve"/>
      <point x="193" y="659" type="line"/>
      <point x="213" y="698" type="line"/>
      <point x="213" y="57" type="line"/>
      <point x="170" y="86" type="line"/>
      <point x="367" y="86" type="line"/>
      <point x="367" y="0" type="line"/>
      <point x="50" y="0" type="line"/>
      <point x="50" y="64" type="line"/>
      <point x="158" y="93" type="line"/>
      <point x="124" y="65" type="line"/>
      <point x="124" y="690" type="line"/>
      <point x="187" y="654" type="line"/>
      <point x="50" y="654" type="line"/>
      <point x="50" y="740" type="line"/>
      <point x="333" y="740" type="line"/>
      <point x="549" y="740"/>
      <point x="634" y="681"/>
      <point x="634" y="501" type="curve" smooth="yes"/>
      <point x="634" y="311"/>
      <point x="561" y="246"/>
      <point x="312" y="246" type="curve" smooth="yes"/>
      <point x="189" y="246" type="line"/>
      <point x="189" y="327" type="line"/>
      <point x="328" y="327" type="line" smooth="yes"/>
      <point x="502" y="327"/>
      <point x="540" y="380"/>
      <point x="540" y="501" type="curve" smooth="yes"/>
      <point x="540" y="621"/>
      <point x="482" y="660"/>
    </contour>
  </outline>
</glyph>
<glyph name="Q" format="2">
  <advance width="758"/>
  <unicode hex="0051"/>
  <outline>
    <contour>
      <point x="335" y="11" type="line"/>
      <point x="413" y="10" type="line"/>
      <point x="413" y="-60" type="line" smooth="yes"/>
      <point x="413" y="-110.19718309859155"/>
      <point x="435.0" y="-126.0"/>
      <point x="508" y="-126" type="curve" smooth="yes"/>
      <point x="559" y="-126.0"/>
      <point x="604" y="-119"/>
      <point x="652" y="-105" type="curve"/>
      <point x="670" y="-176" type="line"/>
      <point x="594.6457738581903" y="-201.11807538060324"/>
      <point x="537.3089005235603" y="-213.0"/>
      <point x="478" y="-213" type="curve" smooth="yes"/>
      <point x="382.6666666666667" y="-213.0"/>
      <point x="335.0" y="-172.0"/>
      <point x="335" y="-90" type="curve"/>
    </contour>
    <component base="O" yOffset="-1"/>
  </outline>
</glyph>
<glyph name="R" format="2">
  <advance width="701"/>
  <unicode hex="0052"/>
  <outline>
    <contour>
      <point x="162" y="291" type="line"/>
      <point x="393" y="291" type="line"/>
      <point x="362" y="309" type="line"/>
      <point x="531" y="0" type="line"/>
      <point x="690.106" y="0" type="line"/>
      <point x="690" y="63" type="line"/>
      <point x="550.508" y="84" type="line"/>
      <point x="602" y="62" type="line"/>
      <point x="448" y="341" type="line"/>
      <point x="306" y="296" type="line"/>
      <point x="421" y="298" type="line" smooth="yes"/>
      <point x="559" y="300"/>
      <point x="634" y="375"/>
      <point x="634" y="521" type="curve" smooth="yes"/>
      <point x="634" y="668"/>
      <point x="578" y="740"/>
      <point x="411" y="740" type="curve" smooth="yes"/>
      <point x="43" y="740" type="line"/>
      <point x="43" y="676" type="line"/>
      <point x="156" y="648" type="line"/>
      <point x="127" y="686" type="line"/>
      <point x="127" y="84" type="line"/>
      <point x="43" y="64" type="line"/>
      <point x="43" y="0" type="line"/>
      <point x="309" y="0" type="line"/>
      <point x="309" y="64" type="line"/>
      <point x="212" y="84" type="line"/>
      <point x="212" y="687" type="line"/>
      <point x="182" y="635" type="line"/>
      <point x="364" y="635" type="line" smooth="yes"/>
      <point x="489.0" y="635.0"/>
      <point x="551" y="630"/>
      <point x="551" y="521" type="curve" smooth="yes"/>
      <point x="551" y="405"/>
      <point x="492.0" y="391.0"/>
      <point x="364" y="391" type="curve" smooth="yes"/>
      <point x="162" y="391" type="line"/>
    </contour>
  </outline>
</glyph>
<glyph name="S" format="2">
  <advance width="641"/>
  <unicode hex="0053"/>
  <outline>
    <contour>
      <point x="495" y="516" type="line"/>
      <point x="562" y="516" type="line"/>
      <point x="572" y="713" type="line"/>
      <point x="572.0" y="713.0"/>
      <point x="491.2675438596491" y="759.0"/>
      <point x="339" y="759" type="curve" smooth="yes"/>
      <point x="194" y="759.0"/>
      <point x="62.0" y="735.0"/>
      <point x="62" y="553" type="curve" smooth="yes"/>
      <point x="62.0" y="376.0"/>
      <point x="179" y="350"/>
      <point x="291" y="331" type="curve" smooth="yes"/>
      <point x="303" y="329" type="line" smooth="yes"/>
      <point x="470.06259150389593" y="301.1562347493507"/>
      <point x="502.0" y="283.0"/>
      <point x="502" y="197" type="curve"/>
      <point x="502.0" y="97.0"/>
      <point x="428.04347826086956" y="80.0"/>
      <point x="313" y="80" type="curve" smooth="yes"/>
      <point x="223" y="80.0"/>
      <point x="165" y="94"/>
      <point x="105" y="122" type="curve"/>
      <point x="134" y="85" type="line"/>
      <point x="127" y="234" type="line"/>
      <point x="59" y="234" type="line"/>
      <point x="48" y="45" type="line"/>
      <point x="48.0" y="45.0"/>
      <point x="149" y="-18.0"/>
      <point x="306" y="-18" type="curve" smooth="yes"/>
      <point x="453.6363636363636" y="-18.0"/>
      <point x="586.0" y="30.0"/>
      <point x="586" y="200" type="curve" smooth="yes"/>
      <point x="586.0" y="337.0"/>
      <point x="544.0045195703958" y="364.9990960859208"/>
      <point x="324" y="409" type="curve" smooth="yes"/>
      <point x="314" y="411" type="line" smooth="yes"/>
      <point x="185" y="437"/>
      <point x="148.0" y="466.0"/>
      <point x="148" y="552" type="curve" smooth="yes"/>
      <point x="148.0" y="616.0"/>
      <point x="191" y="660.0"/>
      <point x="342" y="660" type="curve" smooth="yes"/>
      <point x="415.0760233918129" y="660.0"/>
      <point x="462.6430711522772" y="654.5528228638871"/>
      <point x="518" y="632" type="curve"/>
      <point x="488" y="666" type="line"/>
    </contour>
  </outline>
</glyph>
<glyph name="T" format="2">
  <advance width="712"/>
  <unicode hex="0054"/>
  <outline>
    <contour>
      <point x="647.279" y="655" type="line"/>
      <point x="604.121" y="691.13" type="line"/>
      <point x="616.713" y="524.786" type="line"/>
      <point x="683.713" y="524.786" type="line"/>
      <point x="694" y="740" type="line"/>
      <point x="17" y="740" type="line"/>
      <point x="25.9509" y="542.991" type="line"/>
      <point x="92.9509" y="542.991" type="line"/>
      <point x="104.602" y="702.949" type="line"/>
      <point x="76" y="655" type="line"/>
    </contour>
    <contour>
      <point x="400" y="694" type="line"/>
      <point x="312" y="694" type="line"/>
      <point x="312" y="56" type="line"/>
      <point x="333" y="95" type="line"/>
      <point x="160" y="63" type="line"/>
      <point x="160" y="0" type="line"/>
      <point x="555" y="0" type="line"/>
      <point x="555" y="63" type="line"/>
      <point x="377" y="96" type="line"/>
      <point x="400" y="57" type="line"/>
    </contour>
  </outline>
  <guideline angle="0" x="0" y="516"/>
</glyph>
<glyph name="U" format="2">
  <advance width="816"/>
  <unicode hex="0055"/>
  <outline>
    <contour>
      <point x="617" y="78" type="line"/>
      <point x="632" y="141" type="line"/>
      <point x="606" y="155" type="line"/>
      <point x="554" y="99"/>
      <point x="463" y="78"/>
      <point x="376" y="78" type="curve"/>
      <point x="243" y="78"/>
      <point x="188" y="118"/>
      <point x="188" y="226" type="curve"/>
      <point x="188" y="683" type="line"/>
      <point x="159" y="645" type="line"/>
      <point x="271" y="676" type="line"/>
      <point x="271" y="740" type="line"/>
      <point x="23" y="740" type="line"/>
      <point x="23" y="654" type="line"/>
      <point x="127" y="654" type="line"/>
      <point x="97" y="684" type="line"/>
      <point x="97" y="229" type="line"/>
      <point x="97" y="86"/>
      <point x="176" y="-18"/>
      <point x="327" y="-18" type="curve" smooth="yes"/>
      <point x="480" y="-18"/>
      <point x="532" y="8"/>
      <point x="554" y="78" type="curve"/>
    </contour>
    <contour>
      <point x="741" y="86" type="line"/>
      <point x="633" y="86" type="line"/>
      <point x="663" y="56" type="line"/>
      <point x="661" y="686" type="line"/>
      <point x="637" y="648" type="line"/>
      <point x="741" y="676" type="line"/>
      <point x="741" y="740" type="line"/>
      <point x="488" y="740" type="line"/>
      <point x="488" y="654" type="line"/>
      <point x="601" y="654" type="line"/>
      <point x="571" y="684" type="line"/>
      <point x="571" y="0" type="line"/>
      <point x="741" y="0" type="line"/>
    </contour>
  </outline>
</glyph>
<glyph name="W" format="2">
  <advance width="1119"/>
  <unicode hex="0057"/>
  <outline>
    <contour>
      <point x="1189" y="676" type="line"/>
      <point x="1189" y="740" type="line"/>
      <point x="915" y="740" type="line"/>
      <point x="915" y="676" type="line"/>
      <point x="1049" y="648" type="line"/>
      <point x="1030" y="682" type="line"/>
      <point x="809" y="56" type="line"/>
      <point x="849" y="88" type="line"/>
      <point x="765" y="88" type="line"/>
      <point x="804" y="56" type="line"/>
      <point x="598" y="688" type="line"/>
      <point x="578" y="654" type="line"/>
      <point x="684" y="676" type="line"/>
      <point x="684" y="740" type="line"/>
      <point x="410" y="740" type="line"/>
      <point x="410" y="676" type="line"/>
      <point x="533" y="642" type="line"/>
      <point x="494" y="678" type="line"/>
      <point x="720" y="0" type="line"/>
      <point x="881" y="0" type="line"/>
      <point x="1120" y="683" type="line"/>
      <point x="1081" y="647" type="line"/>
    </contour>
    <contour>
      <point x="749" y="676" type="line"/>
      <point x="749" y="740" type="line"/>
      <point x="475" y="740" type="line"/>
      <point x="475" y="676" type="line"/>
      <point x="609" y="648" type="line"/>
      <point x="590" y="682" type="line"/>
      <point x="369" y="56" type="line"/>
      <point x="409" y="88" type="line"/>
      <point x="325" y="88" type="line"/>
      <point x="364" y="56" type="line"/>
      <point x="158" y="688" type="line"/>
      <point x="138" y="654" type="line"/>
      <point x="244" y="676" type="line"/>
      <point x="244" y="740" type="line"/>
      <point x="-30" y="740" type="line"/>
      <point x="-30" y="676" type="line"/>
      <point x="93" y="642" type="line"/>
      <point x="54" y="678" type="line"/>
      <point x="280" y="0" type="line"/>
      <point x="441" y="0" type="line"/>
      <point x="680" y="683" type="line"/>
      <point x="641" y="647" type="line"/>
    </contour>
  </outline>
</glyph>
<glyph name="X" format="2">
  <advance width="740"/>
  <unicode hex="0058"/>
  <outline>
    <contour>
      <point x="53" y="45" type="line"/>
      <point x="122" y="94" type="line"/>
      <point x="-8" y="64" type="line"/>
      <point x="-8" y="0" type="line"/>
      <point x="319" y="0" type="line"/>
      <point x="319" y="64" type="line"/>
      <point x="170" y="87" type="line"/>
      <point x="160" y="44" type="line"/>
      <point x="376" y="333" type="line"/>
      <point x="402" y="351" type="line"/>
      <point x="679" y="704" type="line"/>
      <point x="580" y="643" type="line"/>
      <point x="725" y="672" type="line"/>
      <point x="725" y="736" type="line"/>
      <point x="398" y="736" type="line"/>
      <point x="398" y="672" type="line"/>
      <point x="565" y="655" type="line"/>
      <point x="563" y="695" type="line"/>
      <point x="344" y="416" type="line"/>
      <point x="320" y="400" type="line"/>
    </contour>
    <contour>
      <point x="659" y="46" type="line"/>
      <point x="143" y="722" type="line"/>
      <point x="152" y="642" type="line"/>
      <point x="323" y="672" type="line"/>
      <point x="323" y="736" type="line"/>
      <point x="-21" y="736" type="line"/>
      <point x="-21" y="672" type="line"/>
      <point x="124" y="636" type="line"/>
      <point x="54" y="698" type="line"/>
      <point x="562" y="26" type="line"/>
      <point x="561" y="94" type="line"/>
      <point x="421" y="64" type="line"/>
      <point x="421" y="0" type="line"/>
      <point x="765" y="0" type="line"/>
      <point x="765" y="64" type="line"/>
      <point x="619" y="90" type="line"/>
    </contour>
    <contour>
      <point x="303" y="295" type="line"/>
      <point x="410" y="295" type="line"/>
      <point x="410" y="449" type="line"/>
      <point x="303" y="449" type="line"/>
    </contour>
  </outline>
</glyph>
<glyph name="Y" format="2">
  <advance width="712"/>
  <unicode hex="0059"/>
  <outline>
    <contour>
      <point x="412" y="294" type="line"/>
      <point x="324" y="294" type="line"/>
      <point x="324" y="60" type="line"/>
      <point x="345" y="99" type="line"/>
      <point x="177" y="67" type="line"/>
      <point x="177" y="0" type="line"/>
      <point x="562" y="0" type="line"/>
      <point x="562" y="67" type="line"/>
      <point x="389" y="100" type="line"/>
      <point x="412" y="61" type="line"/>
    </contour>
    <contour>
      <point x="759" y="675" type="line"/>
      <point x="759" y="740" type="line"/>
      <point x="485" y="740" type="line"/>
      <point x="485" y="675" type="line"/>
      <point x="619" y="647" type="line"/>
      <point x="600" y="681" type="line"/>
      <point x="359" y="302" type="line"/>
      <point x="389" y="302" type="line"/>
      <point x="168" y="687" type="line"/>
      <point x="148" y="653" type="line"/>
      <point x="254" y="675" type="line"/>
      <point x="254" y="740" type="line"/>
      <point x="-20" y="740" type="line"/>
      <point x="-20" y="675" type="line"/>
      <point x="103" y="641" type="line"/>
      <point x="60" y="677" type="line"/>
      <point x="325" y="240" type="line"/>
      <point x="410" y="240" type="line"/>
      <point x="694" y="682" type="line"/>
      <point x="651" y="646" type="line"/>
    </contour>
    <contour>
      <point x="340" y="307" type="line"/>
      <point x="403" y="307" type="line"/>
      <point x="403" y="339" type="line"/>
      <point x="340" y="339" type="line"/>
    </contour>
  </outline>
</glyph>
<glyph name="Z" format="2">
  <advance width="709"/>
  <unicode hex="005A"/>
  <outline>
    <contour>
      <point x="65" y="740" type="line"/>
      <point x="75.0696" y="525.916" type="line"/>
      <point x="142" y="525.916" type="line"/>
      <point x="154.098" y="690.573" type="line"/>
      <point x="122.362" y="656" type="line"/>
      <point x="561" y="656" type="line"/>
      <point x="543" y="678" type="line"/>
      <point x="56" y="100" type="line"/>
      <point x="56" y="0" type="line"/>
      <point x="657" y="0" type="line"/>
      <point x="646.61" y="214.218" type="line"/>
      <point x="580.018" y="214.218" type="line"/>
      <point x="565.541" y="31.0555" type="line"/>
      <point x="611" y="84" type="line"/>
      <point x="139" y="84" type="line"/>
      <point x="144" y="50" type="line"/>
      <point x="630" y="636" type="line"/>
      <point x="630" y="740" type="line"/>
    </contour>
    <contour>
      <point x="119" y="26" type="line"/>
      <point x="181" y="26" type="line"/>
      <point x="181" y="114" type="line"/>
      <point x="119" y="114" type="line"/>
    </contour>
    <contour>
      <point x="514" y="632" type="line"/>
      <point x="587" y="632" type="line"/>
      <point x="587" y="707" type="line"/>
      <point x="514" y="707" type="line"/>
    </contour>
  </outline>
</glyph>
<glyph name="bracketright" format="2">
  <advance width="506"/>
  <unicode hex="005D"/>
  <outline>
    <contour>
      <point x="404" y="765" type="line"/>
      <point x="140" y="755" type="line"/>
      <point x="140" y="684" type="line"/>
      <point x="353" y="676" type="line"/>
      <point x="323" y="711" type="line"/>
      <point x="323" y="-38" type="line"/>
      <point x="353" y="-2" type="line"/>
      <point x="140" y="-10" type="line"/>
      <point x="140" y="-82" type="line"/>
      <point x="404" y="-92" type="line"/>
    </contour>
  </outline>
</glyph>
<glyph name="grave" format="2">
  <advance width="561"/>
  <unicode hex="0060"/>
  <outline>
    <contour>
      <point x="234.353" y="804" type="line"/>
      <point x="300.353" y="639" type="line"/>
      <point x="219.353" y="639" type="line"/>
      <point x="121.353" y="804" type="line"/>
    </contour>
  </outline>
</glyph>
<glyph name="a" format="2">
  <advance width="596"/>
  <unicode hex="0061"/>
  <outline>
    <contour>
      <point x="390" y="0" type="line"/>
      <point x="390" y="327" type="line"/>
      <point x="390" y="429"/>
      <point x="363" y="472"/>
      <point x="256" y="472" type="curve" smooth="yes"/>
      <point x="204" y="472"/>
      <point x="157" y="462"/>
      <point x="93" y="436" type="curve"/>
      <point x="65" y="517" type="line"/>
      <point x="142" y="546"/>
      <point x="199" y="560"/>
      <point x="266" y="560" type="curve" smooth="yes"/>
      <point x="424" y="560"/>
      <point x="478" y="499"/>
      <point x="478" y="324" type="curve" smooth="yes"/>
      <point x="478" y="45" type="line"/>
      <point x="448" y="80" type="line"/>
      <point x="542" y="64" type="line"/>
      <point x="542" y="0" type="line"/>
    </contour>
    <contour>
      <point x="212" y="-15" type="curve" smooth="yes"/>
      <point x="89" y="-15"/>
      <point x="32" y="37"/>
      <point x="32" y="155" type="curve" smooth="yes"/>
      <point x="32" y="279"/>
      <point x="94" y="334"/>
      <point x="232" y="334" type="curve" smooth="yes"/>
      <point x="295" y="334"/>
      <point x="361" y="327"/>
      <point x="407" y="253" type="curve"/>
      <point x="410" y="199" type="line"/>
      <point x="369" y="239"/>
      <point x="327" y="252"/>
      <point x="232" y="252" type="curve" smooth="yes"/>
      <point x="149" y="252"/>
      <point x="121" y="221"/>
      <point x="121" y="156" type="curve" smooth="yes"/>
      <point x="121" y="97"/>
      <point x="148" y="73"/>
      <point x="232" y="73" type="curve" smooth="yes"/>
      <point x="318" y="73"/>
      <point x="374" y="98"/>
      <point x="405" y="136" type="curve"/>
      <point x="420" y="65" type="line"/>
      <point x="330" y="61" type="line"/>
      <point x="372" y="88" type="line"/>
      <point x="339" y="-6"/>
      <point x="285" y="-15"/>
    </contour>
  </outline>
</glyph>
<glyph name="b" format="2">
  <advance width="582"/>
  <unicode hex="0062"/>
  <outline>
    <contour>
      <point x="321" y="-11" type="curve" smooth="yes"/>
      <point x="247" y="-11"/>
      <point x="181" y="36"/>
      <point x="180" y="107" type="curve"/>
      <point x="224" y="79" type="line"/>
      <point x="110" y="79" type="line"/>
      <point x="145" y="153" type="line"/>
      <point x="184" y="104"/>
      <point x="237" y="70"/>
      <point x="310" y="70" type="curve" smooth="yes"/>
      <point x="423" y="70"/>
      <point x="449" y="117"/>
      <point x="449" y="276" type="curve" smooth="yes"/>
      <point x="449" y="422"/>
      <point x="414" y="472"/>
      <point x="312" y="472" type="curve" smooth="yes"/>
      <point x="231" y="472"/>
      <point x="185" y="440"/>
      <point x="160" y="407" type="curve"/>
      <point x="140" y="470" type="line"/>
      <point x="221" y="470" type="line"/>
      <point x="178" y="443" type="line"/>
      <point x="214" y="533"/>
      <point x="253" y="558"/>
      <point x="357" y="558" type="curve" smooth="yes"/>
      <point x="492" y="558"/>
      <point x="542" y="462"/>
      <point x="542" y="280" type="curve" smooth="yes"/>
      <point x="542" y="69"/>
      <point x="482" y="-11"/>
    </contour>
    <contour>
      <point x="72" y="0" type="line"/>
      <point x="72" y="98" type="line"/>
      <point x="72" y="110" type="line"/>
      <point x="72" y="123" type="line"/>
      <point x="72" y="705" type="line"/>
      <point x="101" y="665" type="line"/>
      <point x="0" y="700" type="line"/>
      <point x="0" y="760" type="line"/>
      <point x="161" y="760" type="line"/>
      <point x="161" y="94" type="line"/>
      <point x="126" y="0" type="line"/>
    </contour>
  </outline>
</glyph>
<glyph name="c" format="2">
  <advance width="529"/>
  <unicode hex="0063"/>
  <guideline x="0" y="367" angle="0" identifier="SWfYpYVWrl"/>
  <outline>
    <contour>
      <point x="287" y="-12" type="curve" smooth="yes"/>
      <point x="369.8571428571429" y="-12.0"/>
      <point x="428.96848137303925" y="4.082664755171571"/>
      <point x="487" y="36" type="curve"/>
      <point x="461" y="105" type="line"/>
      <point x="415.250133152077" y="89.08700283550505"/>
      <point x="368.0" y="82.0"/>
      <point x="298" y="82" type="curve" smooth="yes"/>
      <point x="201.0" y="82.0"/>
      <point x="125.0" y="119.99999999999997"/>
      <point x="125" y="270" type="curve" smooth="yes"/>
      <point x="125.0" y="421.0204081632653"/>
      <point x="175.0" y="470.0"/>
      <point x="285" y="470" type="curve" smooth="yes"/>
      <point x="341" y="470.0"/>
      <point x="386" y="462"/>
      <point x="419" y="437" type="curve"/>
      <point x="384" y="491" type="line"/>
      <point x="395" y="343" type="line"/>
      <point x="465" y="343" type="line"/>
      <point x="474" y="505" type="line"/>
      <point x="435.1067657468393" y="540.9014470029176"/>
      <point x="368.53807106598987" y="560.0"/>
      <point x="278" y="560" type="curve" smooth="yes"/>
      <point x="109.0" y="560.0"/>
      <point x="45.0" y="472.0"/>
      <point x="45" y="270" type="curve" smooth="yes"/>
      <point x="45.0" y="63.99999999999997"/>
      <point x="126.36206896551724" y="-12.0"/>
    </contour>
  </outline>
</glyph>
<glyph name="d" format="2">
  <advance width="600"/>
  <unicode hex="0064"/>
  <outline>
    <contour>
      <point x="261" y="-12" type="curve" smooth="yes"/>
      <point x="335" y="-12"/>
      <point x="401" y="35"/>
      <point x="402" y="106" type="curve"/>
      <point x="358" y="78" type="line"/>
      <point x="472" y="78" type="line"/>
      <point x="436" y="156" type="line"/>
      <point x="397" y="107"/>
      <point x="345" y="69"/>
      <point x="272" y="69" type="curve" smooth="yes"/>
      <point x="159" y="69"/>
      <point x="133" y="116"/>
      <point x="133" y="275" type="curve" smooth="yes"/>
      <point x="133" y="421"/>
      <point x="168" y="471"/>
      <point x="270" y="471" type="curve" smooth="yes"/>
      <point x="351" y="471"/>
      <point x="397" y="439"/>
      <point x="422" y="406" type="curve"/>
      <point x="442" y="469" type="line"/>
      <point x="361" y="469" type="line"/>
      <point x="404" y="442" type="line"/>
      <point x="368" y="532"/>
      <point x="329" y="557"/>
      <point x="225" y="557" type="curve" smooth="yes"/>
      <point x="90" y="557"/>
      <point x="40" y="461"/>
      <point x="40" y="279" type="curve" smooth="yes"/>
      <point x="40" y="68"/>
      <point x="100" y="-12"/>
    </contour>
    <contour>
      <point x="571" y="0" type="line"/>
      <point x="571" y="60" type="line"/>
      <point x="483" y="97" type="line"/>
      <point x="511" y="55" type="line"/>
      <point x="511" y="760" type="line"/>
      <point x="303" y="760" type="line"/>
      <point x="303" y="700" type="line"/>
      <point x="452" y="668" type="line"/>
      <point x="423" y="704" type="line"/>
      <point x="423" y="102" type="line"/>
      <point x="423" y="0" type="line"/>
    </contour>
  </outline>
</glyph>
<glyph name="e" format="2">
  <advance width="539"/>
  <unicode hex="0065"/>
  <outline>
    <contour>
      <point x="280" y="558" type="curve" smooth="yes"/>
      <point x="113" y="558"/>
      <point x="45" y="471"/>
      <point x="45" y="270" type="curve" smooth="yes"/>
      <point x="45" y="76.8491"/>
      <point x="144.913" y="-11.807"/>
      <point x="291.889" y="-11.807" type="curve" smooth="yes"/>
      <point x="355.127" y="-11.807"/>
      <point x="416.501" y="-1.68161"/>
      <point x="490" y="43" type="curve"/>
      <point x="465" y="118" type="line"/>
      <point x="410.636" y="87.6742"/>
      <point x="353.871" y="72.3287"/>
      <point x="303.23" y="72.3287" type="curve" smooth="yes"/>
      <point x="196.064" y="72.3287"/>
      <point x="139" y="128.037"/>
      <point x="139" y="270" type="curve" smooth="yes"/>
      <point x="139" y="417.984"/>
      <point x="179" y="480"/>
      <point x="281" y="480" type="curve" smooth="yes"/>
      <point x="371.094" y="480"/>
      <point x="411.457" y="455.517"/>
      <point x="411.457" y="334.272" type="curve" smooth="yes"/>
      <point x="411.457" y="316.904"/>
      <point x="410.629" y="297.551"/>
      <point x="409" y="276" type="curve"/>
      <point x="443" y="307" type="line"/>
      <point x="224" y="307" type="line" smooth="yes"/>
      <point x="186" y="307"/>
      <point x="175" y="301"/>
      <point x="159" y="250" type="curve"/>
      <point x="192" y="269" type="line"/>
      <point x="115" y="269" type="line"/>
      <point x="109" y="237" type="line"/>
      <point x="493" y="237" type="line"/>
      <point x="498.257" y="331.747" type="line" smooth="yes"/>
      <point x="498.257" y="500.135"/>
      <point x="434.908" y="558"/>
    </contour>
  </outline>
</glyph>
<glyph name="f" format="2">
  <advance width="412"/>
  <unicode hex="0066"/>
  <outline>
    <contour>
      <point x="34" y="0" type="line"/>
      <point x="345" y="0" type="line"/>
      <point x="345" y="60" type="line"/>
      <point x="180" y="97" type="line"/>
      <point x="206" y="55" type="line"/>
      <point x="206" y="554" type="line" smooth="yes"/>
      <point x="206" y="652"/>
      <point x="225.0" y="669.0"/>
      <point x="297" y="669" type="curve" smooth="yes"/>
      <point x="336" y="669.0"/>
      <point x="399" y="664"/>
      <point x="426" y="659" type="curve"/>
      <point x="442" y="731" type="line"/>
      <point x="401" y="745"/>
      <point x="336.0" y="760.0"/>
      <point x="290" y="760" type="curve" smooth="yes"/>
      <point x="152.0" y="760.0"/>
      <point x="125" y="695.0"/>
      <point x="125" y="529" type="curve" smooth="yes"/>
      <point x="125" y="55" type="line"/>
      <point x="151" y="96" type="line"/>
      <point x="34" y="60" type="line"/>
    </contour>
    <contour>
      <point x="144" y="449" type="line"/>
      <point x="191" y="449" type="line"/>
      <point x="389" y="462" type="line"/>
      <point x="389" y="527" type="line"/>
      <point x="183" y="542" type="line"/>
      <point x="144" y="543" type="line"/>
      <point x="34" y="528" type="line"/>
      <point x="34" y="463" type="line"/>
    </contour>
  </outline>
</glyph>
<glyph name="g" format="2">
  <advance width="588"/>
  <unicode hex="0067"/>
  <outline>
    <contour>
      <point x="263" y="-18" type="curve" smooth="yes"/>
      <point x="356" y="-18"/>
      <point x="383" y="33"/>
      <point x="403" y="88" type="curve"/>
      <point x="363" y="70" type="line"/>
      <point x="472" y="70" type="line"/>
      <point x="454" y="169" type="line"/>
      <point x="421" y="92"/>
      <point x="360" y="75"/>
      <point x="278" y="75" type="curve" smooth="yes"/>
      <point x="180" y="75"/>
      <point x="128" y="117"/>
      <point x="128" y="270" type="curve" smooth="yes"/>
      <point x="128" y="433"/>
      <point x="181" y="465"/>
      <point x="286" y="465" type="curve" smooth="yes"/>
      <point x="371" y="465"/>
      <point x="420" y="437"/>
      <point x="453" y="372" type="curve"/>
      <point x="454" y="472" type="line"/>
      <point x="370" y="472" type="line"/>
      <point x="400" y="463" type="line"/>
      <point x="386" y="529"/>
      <point x="346" y="560"/>
      <point x="272" y="560" type="curve" smooth="yes"/>
      <point x="117" y="560"/>
      <point x="48" y="477"/>
      <point x="48" y="272" type="curve" smooth="yes"/>
      <point x="48" y="46"/>
      <point x="128" y="-18"/>
    </contour>
    <contour>
      <point x="430" y="55" type="line" smooth="yes"/>
      <point x="430" y="-116"/>
      <point x="347" y="-131"/>
      <point x="243" y="-131" type="curve" smooth="yes"/>
      <point x="189" y="-131"/>
      <point x="137" y="-120"/>
      <point x="87" y="-107" type="curve"/>
      <point x="63" y="-177" type="line"/>
      <point x="121" y="-198"/>
      <point x="192" y="-215"/>
      <point x="261" y="-215" type="curve" smooth="yes"/>
      <point x="403.570281124498" y="-215.0"/>
      <point x="511" y="-166.0"/>
      <point x="511" y="55" type="curve" smooth="yes"/>
      <point x="511" y="543" type="line"/>
      <point x="455" y="543" type="line"/>
      <point x="430" y="457" type="line"/>
    </contour>
  </outline>
</glyph>
<glyph name="h" format="2">
  <advance width="649"/>
  <unicode hex="0068"/>
  <outline>
    <contour>
      <point x="597" y="64" type="line"/>
      <point x="491" y="115" type="line"/>
      <point x="543" y="61" type="line"/>
      <point x="543" y="369" type="line" smooth="yes"/>
      <point x="543" y="509"/>
      <point x="490" y="555"/>
      <point x="379" y="555" type="curve" smooth="yes"/>
      <point x="282" y="555"/>
      <point x="224" y="520"/>
      <point x="218" y="435" type="curve"/>
      <point x="265" y="469" type="line"/>
      <point x="180" y="469" type="line"/>
      <point x="180" y="379" type="line"/>
      <point x="207" y="432"/>
      <point x="291" y="453"/>
      <point x="347" y="453" type="curve" smooth="yes"/>
      <point x="425" y="453"/>
      <point x="463" y="427"/>
      <point x="463" y="390" type="curve" smooth="yes"/>
      <point x="463" y="61" type="line"/>
      <point x="491" y="103" type="line"/>
      <point x="406" y="64" type="line"/>
      <point x="406" y="-1" type="line"/>
      <point x="597" y="-1" type="line"/>
    </contour>
    <contour>
      <point x="255" y="-1" type="line"/>
      <point x="255" y="64" type="line"/>
      <point x="170" y="106" type="line"/>
      <point x="198" y="64" type="line"/>
      <point x="198" y="759" type="line"/>
      <point x="58" y="760" type="line"/>
      <point x="58" y="664" type="line"/>
      <point x="170" y="664" type="line"/>
      <point x="118" y="693" type="line"/>
      <point x="118" y="71" type="line"/>
      <point x="133" y="97" type="line"/>
      <point x="58" y="64" type="line"/>
      <point x="58" y="-1" type="line"/>
    </contour>
  </outline>
</glyph>
<glyph name="i" format="2">
  <advance width="308"/>
  <unicode hex="0069"/>
  <outline>
    <contour>
      <point x="135" y="643" type="curve" smooth="yes"/>
      <point x="175" y="643"/>
      <point x="196" y="660"/>
      <point x="196" y="709" type="curve" smooth="yes"/>
      <point x="196" y="760"/>
      <point x="175" y="774"/>
      <point x="135" y="774" type="curve"/>
      <point x="87" y="774"/>
      <point x="68" y="760"/>
      <point x="68" y="709" type="curve" smooth="yes"/>
      <point x="68" y="660"/>
      <point x="87" y="643"/>
    </contour>
    <contour>
      <point x="50" y="0" type="line"/>
      <point x="258" y="0" type="line"/>
      <point x="258" y="60" type="line"/>
      <point x="198" y="86" type="line"/>
      <point x="198" y="540" type="line"/>
      <point x="50" y="540" type="line"/>
      <point x="50" y="480" type="line"/>
      <point x="110" y="455" type="line"/>
      <point x="110" y="86" type="line"/>
      <point x="50" y="60" type="line"/>
    </contour>
  </outline>
</glyph>
<glyph name="j" format="2">
  <advance width="328"/>
  <unicode hex="006A"/>
  <outline>
    <contour>
      <point x="165" y="643" type="curve" smooth="yes"/>
      <point x="209" y="643"/>
      <point x="230" y="660"/>
      <point x="230" y="709" type="curve" smooth="yes"/>
      <point x="230" y="760"/>
      <point x="209" y="774"/>
      <point x="169" y="774" type="curve"/>
      <point x="121" y="774"/>
      <point x="102" y="760"/>
      <point x="102" y="709" type="curve" smooth="yes"/>
      <point x="102" y="660"/>
      <point x="121" y="643"/>
    </contour>
    <contour>
      <point x="152" y="-11" type="line" smooth="yes"/>
      <point x="152" y="-105.592"/>
      <point x="130.882" y="-133.631"/>
      <point x="46.9008" y="-133.631" type="curve" smooth="yes"/>
      <point x="17.6527" y="-133.631"/>
      <point x="-16.0463" y="-126.649"/>
      <point x="-52" y="-115" type="curve"/>
      <point x="-77" y="-190" type="line"/>
      <point x="-25.0293" y="-209.367"/>
      <point x="22.6007" y="-219.873"/>
      <point x="64.2714" y="-219.873" type="curve" smooth="yes"/>
      <point x="202.463" y="-219.873"/>
      <point x="240" y="-166.235"/>
      <point x="240" y="15" type="curve" smooth="yes"/>
      <point x="240" y="540" type="line"/>
      <point x="19" y="540" type="line"/>
      <point x="19" y="466" type="line"/>
      <point x="185" y="447" type="line"/>
      <point x="152" y="485" type="line"/>
    </contour>
  </outline>
</glyph>
<glyph name="k" format="2">
  <advance width="615"/>
  <unicode hex="006B"/>
  <guideline x="0" y="322" angle="0" identifier="ByaEgZyva8"/>
  <outline>
    <contour>
      <point x="515" y="0" type="line"/>
      <point x="520" y="65" type="line"/>
      <point x="377" y="295" type="line"/>
      <point x="355" y="238" type="line"/>
      <point x="514" y="471" type="line"/>
      <point x="437" y="498" type="line"/>
      <point x="281" y="268" type="line"/>
      <point x="356" y="324" type="line"/>
      <point x="151" y="324" type="line"/>
      <point x="151" y="237" type="line"/>
      <point x="367" y="237" type="line"/>
      <point x="306" y="257" type="line"/>
      <point x="465" y="0" type="line"/>
    </contour>
    <contour>
      <point x="420" y="450" type="line"/>
      <point x="455" y="440" type="line"/>
      <point x="589" y="481" type="line"/>
      <point x="589" y="540" type="line"/>
      <point x="318" y="540" type="line"/>
      <point x="318" y="481" type="line"/>
    </contour>
    <contour>
      <point x="337" y="247" type="line"/>
      <point x="390" y="215" type="line"/>
      <point x="390" y="322" type="line"/>
      <point x="337" y="292" type="line"/>
    </contour>
    <contour>
      <point x="189" y="775" type="line"/>
      <point x="49" y="751" type="line"/>
      <point x="49" y="691" type="line"/>
      <point x="140" y="660" type="line"/>
      <point x="109" y="702" type="line"/>
      <point x="109" y="56" type="line"/>
      <point x="137" y="98" type="line"/>
      <point x="49" y="60" type="line"/>
      <point x="49" y="0" type="line"/>
      <point x="262" y="0" type="line"/>
      <point x="262" y="60" type="line"/>
      <point x="161" y="96" type="line"/>
      <point x="189" y="56" type="line"/>
    </contour>
    <contour>
      <point x="367" y="0" type="line"/>
      <point x="466" y="0" type="line"/>
      <point x="470" y="7" type="line"/>
      <point x="474" y="0" type="line"/>
      <point x="593" y="0" type="line"/>
      <point x="593" y="60" type="line"/>
      <point x="470" y="105" type="line"/>
      <point x="439" y="89" type="line"/>
      <point x="367" y="60" type="line"/>
    </contour>
  </outline>
</glyph>
<glyph name="l" format="2">
  <advance width="305"/>
  <unicode hex="006C"/>
  <outline>
    <contour>
      <point x="189" y="775" type="line"/>
      <point x="39" y="751" type="line"/>
      <point x="39" y="691" type="line"/>
      <point x="140" y="660" type="line"/>
      <point x="109" y="702" type="line"/>
      <point x="109" y="56" type="line"/>
      <point x="137" y="98" type="line"/>
      <point x="39" y="60" type="line"/>
      <point x="39" y="0" type="line"/>
      <point x="272" y="0" type="line"/>
      <point x="272" y="60" type="line"/>
      <point x="161" y="96" type="line"/>
      <point x="189" y="56" type="line"/>
    </contour>
  </outline>
</glyph>
<glyph name="m" format="2">
  <advance width="958"/>
  <unicode hex="006D"/>
  <outline>
    <contour>
      <point x="55" y="0" type="line"/>
      <point x="262" y="0" type="line"/>
      <point x="262" y="60" type="line"/>
      <point x="167" y="96" type="line"/>
      <point x="195" y="56" type="line"/>
      <point x="195" y="558" type="line"/>
      <point x="55" y="534" type="line"/>
      <point x="55" y="474" type="line"/>
      <point x="146" y="443" type="line"/>
      <point x="115" y="485" type="line"/>
      <point x="115" y="56" type="line"/>
      <point x="143" y="98" type="line"/>
      <point x="55" y="60" type="line"/>
    </contour>
    <contour>
      <point x="377" y="0" type="line"/>
      <point x="592" y="0" type="line"/>
      <point x="592" y="60" type="line"/>
      <point x="498" y="99" type="line"/>
      <point x="525" y="56" type="line"/>
      <point x="525" y="359" type="line" smooth="yes"/>
      <point x="525" y="508"/>
      <point x="485" y="558"/>
      <point x="360" y="558" type="curve"/>
      <point x="284" y="558"/>
      <point x="247" y="529"/>
      <point x="211" y="444" type="curve"/>
      <point x="255" y="470" type="line"/>
      <point x="165" y="470" type="line"/>
      <point x="167" y="378" type="line"/>
      <point x="211" y="436"/>
      <point x="264" y="465"/>
      <point x="340" y="465" type="curve" smooth="yes"/>
      <point x="419" y="465"/>
      <point x="445" y="431"/>
      <point x="445" y="330" type="curve" smooth="yes"/>
      <point x="445" y="56" type="line"/>
      <point x="473" y="96" type="line"/>
      <point x="377" y="60" type="line"/>
    </contour>
    <contour>
      <point x="708" y="0" type="line"/>
      <point x="915" y="0" type="line"/>
      <point x="915" y="60" type="line"/>
      <point x="828" y="99" type="line"/>
      <point x="855" y="56" type="line"/>
      <point x="855" y="359" type="line" smooth="yes"/>
      <point x="855" y="508"/>
      <point x="817" y="558"/>
      <point x="696" y="558" type="curve" smooth="yes"/>
      <point x="607" y="558"/>
      <point x="565" y="529"/>
      <point x="531" y="444" type="curve"/>
      <point x="595" y="470" type="line"/>
      <point x="495" y="470" type="line"/>
      <point x="497" y="378" type="line"/>
      <point x="542" y="437"/>
      <point x="599" y="465"/>
      <point x="680" y="465" type="curve" smooth="yes"/>
      <point x="752" y="465"/>
      <point x="775" y="431"/>
      <point x="775" y="330" type="curve" smooth="yes"/>
      <point x="775" y="56" type="line"/>
      <point x="803" y="96" type="line"/>
      <point x="708" y="60" type="line"/>
    </contour>
  </outline>
</glyph>
<glyph name="n" format="2">
  <advance width="638"/>
  <unicode hex="006E"/>
  <outline>
    <contour>
      <point x="55" y="0" type="line"/>
      <point x="268" y="0" type="line"/>
      <point x="268" y="60" type="line"/>
      <point x="167" y="96" type="line"/>
      <point x="195" y="56" type="line"/>
      <point x="195" y="558" type="line"/>
      <point x="55" y="534" type="line"/>
      <point x="55" y="474" type="line"/>
      <point x="146" y="443" type="line"/>
      <point x="115" y="485" type="line"/>
      <point x="115" y="56" type="line"/>
      <point x="143" y="98" type="line"/>
      <point x="55" y="60" type="line"/>
    </contour>
    <contour>
      <point x="382" y="0" type="line"/>
      <point x="595" y="0" type="line"/>
      <point x="595" y="60" type="line"/>
      <point x="508" y="99" type="line"/>
      <point x="535" y="56" type="line"/>
      <point x="535" y="359" type="line" smooth="yes"/>
      <point x="535" y="494"/>
      <point x="503" y="558"/>
      <point x="378" y="558" type="curve" smooth="yes"/>
      <point x="270" y="558"/>
      <point x="247" y="531"/>
      <point x="211" y="444" type="curve"/>
      <point x="255" y="470" type="line"/>
      <point x="165" y="470" type="line"/>
      <point x="177" y="378" type="line"/>
      <point x="220" y="435"/>
      <point x="268" y="465"/>
      <point x="340" y="465" type="curve" smooth="yes"/>
      <point x="427" y="465"/>
      <point x="455" y="431"/>
      <point x="455" y="330" type="curve" smooth="yes"/>
      <point x="455" y="56" type="line"/>
      <point x="483" y="96" type="line"/>
      <point x="382" y="60" type="line"/>
    </contour>
  </outline>
</glyph>
<glyph name="o" format="2">
  <advance width="566"/>
  <unicode hex="006F"/>
  <outline>
    <contour>
      <point x="283" y="-10" type="curve" smooth="yes"/>
      <point x="458" y="-10"/>
      <point x="521" y="71"/>
      <point x="521" y="273" type="curve" smooth="yes"/>
      <point x="521" y="475"/>
      <point x="458" y="560"/>
      <point x="283" y="560" type="curve" smooth="yes"/>
      <point x="108" y="560"/>
      <point x="45" y="475"/>
      <point x="45" y="273" type="curve" smooth="yes"/>
      <point x="45" y="71"/>
      <point x="108" y="-10"/>
    </contour>
    <contour>
      <point x="283" y="83" type="curve" smooth="yes"/>
      <point x="172.0" y="83.0"/>
      <point x="125.0" y="122.41489361702128"/>
      <point x="125" y="273" type="curve" smooth="yes"/>
      <point x="125.0" y="423.5520833333333"/>
      <point x="172.0" y="467.0"/>
      <point x="283" y="467" type="curve" smooth="yes"/>
      <point x="394.0" y="467.0"/>
      <point x="441.0" y="423.5520833333333"/>
      <point x="441" y="273" type="curve" smooth="yes"/>
      <point x="441.0" y="122.41489361702128"/>
      <point x="394.0" y="83.0"/>
    </contour>
  </outline>
</glyph>
<glyph name="p" format="2">
  <advance width="604"/>
  <unicode hex="0070"/>
  <outline>
    <contour>
      <point x="45" y="-210" type="line"/>
      <point x="45" y="-160" type="line"/>
      <point x="105" y="-137" type="line"/>
      <point x="105" y="455" type="line"/>
      <point x="45" y="480" type="line"/>
      <point x="45" y="540" type="line"/>
      <point x="185" y="540" type="line"/>
      <point x="185" y="-137" type="line"/>
      <point x="325" y="-160" type="line"/>
      <point x="325" y="-210" type="line"/>
    </contour>
    <contour>
      <point x="479" y="278" type="curve" smooth="yes"/>
      <point x="479" y="424"/>
      <point x="429" y="465"/>
      <point x="327" y="465" type="curve" smooth="yes"/>
      <point x="246" y="465"/>
      <point x="209" y="440"/>
      <point x="184" y="407" type="curve"/>
      <point x="164" y="470" type="line"/>
      <point x="235" y="470" type="line"/>
      <point x="198" y="443" type="line"/>
      <point x="217" y="524"/>
      <point x="257" y="560"/>
      <point x="340" y="560" type="curve"/>
      <point x="499" y="560"/>
      <point x="559" y="461"/>
      <point x="559" y="279" type="curve" smooth="yes"/>
      <point x="559" y="17"/>
      <point x="445" y="-10"/>
      <point x="327" y="-10" type="curve"/>
      <point x="242" y="-10"/>
      <point x="210" y="17"/>
      <point x="180" y="48" type="curve"/>
      <point x="180" y="151" type="line"/>
      <point x="208" y="108"/>
      <point x="236" y="85"/>
      <point x="329" y="85" type="curve"/>
      <point x="429" y="85"/>
      <point x="479" y="123"/>
    </contour>
  </outline>
</glyph>
<glyph name="q" format="2">
  <advance width="605"/>
  <unicode hex="0071"/>
  <outline>
    <contour>
      <point x="479" y="385" type="line"/>
      <point x="495" y="385" type="line"/>
      <point x="495" y="521" type="line"/>
      <point x="479" y="521" type="line"/>
    </contour>
    <contour>
      <point x="259" y="-18" type="curve" smooth="yes"/>
      <point x="352" y="-18"/>
      <point x="379" y="33"/>
      <point x="399" y="88" type="curve"/>
      <point x="359" y="70" type="line"/>
      <point x="468" y="70" type="line"/>
      <point x="450" y="169" type="line"/>
      <point x="417" y="92"/>
      <point x="356" y="75"/>
      <point x="274" y="75" type="curve" smooth="yes"/>
      <point x="176" y="75"/>
      <point x="124" y="117"/>
      <point x="124" y="270" type="curve" smooth="yes"/>
      <point x="124" y="433"/>
      <point x="177" y="465"/>
      <point x="282" y="465" type="curve" smooth="yes"/>
      <point x="367" y="465"/>
      <point x="416" y="437"/>
      <point x="449" y="372" type="curve"/>
      <point x="450" y="472" type="line"/>
      <point x="366" y="472" type="line"/>
      <point x="396" y="463" type="line"/>
      <point x="382" y="529"/>
      <point x="342" y="560"/>
      <point x="268" y="560" type="curve" smooth="yes"/>
      <point x="113" y="560"/>
      <point x="44" y="477"/>
      <point x="44" y="272" type="curve" smooth="yes"/>
      <point x="44" y="46"/>
      <point x="124" y="-18"/>
    </contour>
    <contour>
      <point x="426" y="-155" type="line"/>
      <point x="467" y="-114" type="line"/>
      <point x="295" y="-150" type="line"/>
      <point x="295" y="-210" type="line"/>
      <point x="575" y="-210" type="line"/>
      <point x="575" y="-150" type="line"/>
      <point x="483" y="-116" type="line"/>
      <point x="515" y="-167" type="line"/>
      <point x="515" y="543" type="line"/>
      <point x="451" y="543" type="line"/>
      <point x="426" y="457" type="line"/>
    </contour>
  </outline>
</glyph>
<glyph name="r" format="2">
  <advance width="505"/>
  <unicode hex="0072"/>
  <guideline x="0" y="367" angle="0" identifier="324qiulJ3E"/>
  <outline>
    <contour>
      <point x="392" y="343" type="line"/>
      <point x="461" y="343" type="line"/>
      <point x="473" y="523" type="line"/>
      <point x="452" y="535"/>
      <point x="419" y="555"/>
      <point x="359" y="555" type="curve" smooth="yes"/>
      <point x="288" y="555"/>
      <point x="242" y="532"/>
      <point x="229" y="460" type="curve"/>
      <point x="257" y="480" type="line"/>
      <point x="185" y="480" type="line"/>
      <point x="185" y="401" type="line"/>
      <point x="217" y="450"/>
      <point x="265" y="463"/>
      <point x="319" y="463" type="curve" smooth="yes"/>
      <point x="348" y="463"/>
      <point x="388" y="458"/>
      <point x="425" y="424" type="curve"/>
      <point x="379" y="497" type="line"/>
    </contour>
    <contour>
      <point x="55" y="0" type="line"/>
      <point x="348" y="0" type="line"/>
      <point x="348" y="59" type="line"/>
      <point x="167" y="99" type="line"/>
      <point x="195" y="56" type="line"/>
      <point x="195" y="558" type="line"/>
      <point x="55" y="534" type="line"/>
      <point x="55" y="474" type="line"/>
      <point x="146" y="443" type="line"/>
      <point x="115" y="485" type="line"/>
      <point x="115" y="56" type="line"/>
      <point x="143" y="98" type="line"/>
      <point x="55" y="60" type="line"/>
    </contour>
  </outline>
</glyph>
<glyph name="s" format="2">
  <advance width="515"/>
  <unicode hex="0073"/>
  <outline>
    <contour>
      <point x="451.586" y="367.275" type="line"/>
      <point x="456.523" y="495.586" type="line"/>
      <point x="419.317" y="530.269"/>
      <point x="353" y="560"/>
      <point x="270" y="560" type="curve" smooth="yes"/>
      <point x="122.336" y="560"/>
      <point x="72.0997" y="513.943"/>
      <point x="72.0997" y="408.782" type="curve" smooth="yes"/>
      <point x="72.0997" y="270.916"/>
      <point x="171.612" y="246.493"/>
      <point x="258.759" y="235.434" type="curve" smooth="yes"/>
      <point x="326.641" y="226.819"/>
      <point x="387.019" y="219.092"/>
      <point x="387.019" y="148.08" type="curve" smooth="yes"/>
      <point x="387.019" y="94.5738"/>
      <point x="352.741" y="70"/>
      <point x="257.213" y="70" type="curve" smooth="yes"/>
      <point x="207.234" y="70"/>
      <point x="161" y="76.7265"/>
      <point x="102.181" y="124.933" type="curve"/>
      <point x="149.636" y="58.962" type="line"/>
      <point x="136.754" y="189.157" type="line"/>
      <point x="67.4075" y="188.883" type="line"/>
      <point x="60.1031" y="58.962" type="line"/>
      <point x="102.181" y="13.9462"/>
      <point x="177.046" y="-15"/>
      <point x="253.353" y="-15" type="curve" smooth="yes"/>
      <point x="408.03" y="-15"/>
      <point x="478.143" y="30.8997"/>
      <point x="478.143" y="151.609" type="curve" smooth="yes"/>
      <point x="478.143" y="292.486"/>
      <point x="382.644" y="307.136"/>
      <point x="296.472" y="320.309" type="curve" smooth="yes"/>
      <point x="225.633" y="331.137"/>
      <point x="161.096" y="331.137"/>
      <point x="161.096" y="419.097" type="curve" smooth="yes"/>
      <point x="161.096" y="466.648"/>
      <point x="185" y="481"/>
      <point x="268" y="481" type="curve" smooth="yes"/>
      <point x="329" y="481"/>
      <point x="383.481" y="454"/>
      <point x="414.045" y="430.565" type="curve"/>
      <point x="366.455" y="513.873" type="line"/>
      <point x="376.995" y="367.275" type="line"/>
    </contour>
  </outline>
  <guideline angle="0" x="0" y="189"/>
</glyph>
<glyph name="t" format="2">
  <advance width="440"/>
  <unicode hex="0074"/>
  <outline>
    <contour>
      <point x="135" y="447" type="line"/>
      <point x="181" y="447" type="line"/>
      <point x="390" y="464" type="line"/>
      <point x="390" y="530" type="line"/>
      <point x="174" y="546" type="line"/>
      <point x="136" y="546" type="line"/>
      <point x="21" y="531" type="line"/>
      <point x="21" y="465" type="line"/>
    </contour>
    <contour>
      <point x="272" y="-18" type="curve" smooth="yes"/>
      <point x="340" y="-18"/>
      <point x="388" y="9"/>
      <point x="427" y="32" type="curve"/>
      <point x="399" y="99" type="line"/>
      <point x="362" y="83"/>
      <point x="321" y="76"/>
      <point x="280" y="76" type="curve" smooth="yes"/>
      <point x="217" y="76"/>
      <point x="191" y="94"/>
      <point x="191" y="172" type="curve" smooth="yes"/>
      <point x="191" y="480" type="line"/>
      <point x="198" y="501" type="line"/>
      <point x="189" y="640" type="line"/>
      <point x="116" y="640" type="line"/>
      <point x="105" y="500" type="line"/>
      <point x="111" y="480" type="line"/>
      <point x="111" y="135" type="line" smooth="yes"/>
      <point x="111" y="26"/>
      <point x="167" y="-18"/>
    </contour>
  </outline>
</glyph>
<glyph name="u" format="2">
  <advance width="646"/>
  <unicode hex="0075"/>
  <outline>
    <contour>
      <point x="8" y="476" type="line"/>
      <point x="130" y="421" type="line"/>
      <point x="72" y="479" type="line"/>
      <point x="72" y="171" type="line"/>
      <point x="72" y="31"/>
      <point x="127" y="-15"/>
      <point x="238" y="-15" type="curve" smooth="yes"/>
      <point x="335" y="-15"/>
      <point x="392" y="20"/>
      <point x="398" y="109" type="curve"/>
      <point x="363" y="73" type="line"/>
      <point x="435" y="56" type="line"/>
      <point x="437" y="160" type="line"/>
      <point x="410" y="107"/>
      <point x="332" y="89"/>
      <point x="276" y="89" type="curve" smooth="yes"/>
      <point x="198" y="89"/>
      <point x="158" y="112"/>
      <point x="158" y="149" type="curve" smooth="yes"/>
      <point x="158" y="541" type="line"/>
      <point x="8" y="541" type="line"/>
    </contour>
    <contour>
      <point x="350" y="541" type="line"/>
      <point x="350" y="476" type="line"/>
      <point x="445" y="432" type="line"/>
      <point x="417" y="476" type="line"/>
      <point x="417" y="1" type="line"/>
      <point x="563" y="1" type="line"/>
      <point x="563" y="64" type="line"/>
      <point x="451" y="107" type="line"/>
      <point x="503" y="68" type="line"/>
      <point x="503" y="541" type="line"/>
    </contour>
  </outline>
</glyph>
<glyph name="v" format="2">
  <advance width="590"/>
  <unicode hex="0076"/>
  <outline>
    <contour>
      <point x="-21" y="480" type="line"/>
      <point x="84" y="451" type="line"/>
      <point x="44" y="487" type="line"/>
      <point x="231" y="-1" type="line"/>
      <point x="351" y="-1" type="line"/>
      <point x="543" y="492" type="line"/>
      <point x="503" y="457" type="line"/>
      <point x="604" y="480" type="line"/>
      <point x="604" y="540" type="line"/>
      <point x="349" y="540" type="line"/>
      <point x="349" y="480" type="line"/>
      <point x="465" y="456" type="line"/>
      <point x="454" y="490" type="line"/>
      <point x="281" y="37" type="line"/>
      <point x="302" y="37" type="line"/>
      <point x="129" y="490" type="line"/>
      <point x="104" y="456" type="line"/>
      <point x="221" y="480" type="line"/>
      <point x="221" y="540" type="line"/>
      <point x="-21" y="540" type="line"/>
    </contour>
    <contour>
      <point x="329" y="45" type="line"/>
      <point x="329" y="99" type="line"/>
      <point x="239" y="99" type="line"/>
      <point x="239" y="45" type="line"/>
    </contour>
  </outline>
</glyph>
<glyph name="w" format="2">
  <advance width="848"/>
  <unicode hex="0077"/>
  <outline>
    <contour>
      <point x="419" y="457" type="line"/>
      <point x="404" y="458" type="line"/>
      <point x="518" y="0" type="line"/>
      <point x="660" y="0" type="line"/>
      <point x="776" y="477" type="line"/>
      <point x="749" y="452" type="line"/>
      <point x="845" y="478" type="line"/>
      <point x="845" y="540" type="line"/>
      <point x="603" y="540" type="line"/>
      <point x="603" y="478" type="line"/>
      <point x="706" y="457" type="line"/>
      <point x="693" y="481" type="line"/>
      <point x="594" y="59" type="line"/>
      <point x="634" y="90" type="line"/>
      <point x="554" y="90" type="line"/>
      <point x="576" y="68" type="line"/>
      <point x="471" y="498" type="line"/>
      <point x="351" y="498" type="line"/>
      <point x="231" y="59" type="line"/>
      <point x="269" y="90" type="line"/>
      <point x="182" y="90" type="line"/>
      <point x="219" y="68" type="line"/>
      <point x="116" y="481" type="line"/>
      <point x="102" y="452" type="line"/>
      <point x="233" y="478" type="line"/>
      <point x="233" y="540" type="line"/>
      <point x="-22" y="540" type="line"/>
      <point x="-22" y="478" type="line"/>
      <point x="86" y="452" type="line"/>
      <point x="34" y="481" type="line"/>
      <point x="157" y="-1" type="line"/>
      <point x="292" y="-1" type="line"/>
    </contour>
    <contour>
      <point x="451" y="405" type="line"/>
      <point x="451" y="484" type="line"/>
      <point x="375" y="484" type="line"/>
      <point x="375" y="405" type="line"/>
    </contour>
  </outline>
</glyph>
<glyph name="x" format="2">
  <advance width="590"/>
  <unicode hex="0078"/>
  <outline>
    <contour>
      <point x="63" y="64" type="line"/>
      <point x="104" y="90" type="line"/>
      <point x="12" y="64" type="line"/>
      <point x="12" y="4" type="line"/>
      <point x="254" y="4" type="line"/>
      <point x="254" y="64" type="line"/>
      <point x="155" y="85" type="line"/>
      <point x="151" y="61" type="line"/>
      <point x="487" y="480" type="line"/>
      <point x="466" y="454" type="line"/>
      <point x="558" y="480" type="line"/>
      <point x="558" y="540" type="line"/>
      <point x="316" y="540" type="line"/>
      <point x="316" y="480" type="line"/>
      <point x="415" y="459" type="line"/>
      <point x="399" y="483" type="line"/>
    </contour>
    <contour>
      <point x="526" y="55" type="line"/>
      <point x="169" y="483" type="line"/>
      <point x="153" y="459" type="line"/>
      <point x="257" y="480" type="line"/>
      <point x="257" y="540" type="line"/>
      <point x="2" y="540" type="line"/>
      <point x="2" y="480" type="line"/>
      <point x="110" y="454" type="line"/>
      <point x="56" y="490" type="line"/>
      <point x="410" y="62" type="line"/>
      <point x="437" y="85" type="line"/>
      <point x="333" y="64" type="line"/>
      <point x="333" y="4" type="line"/>
      <point x="588" y="4" type="line"/>
      <point x="588" y="64" type="line"/>
      <point x="480" y="90" type="line"/>
    </contour>
  </outline>
</glyph>
<glyph name="y" format="2">
  <advance width="590"/>
  <unicode hex="0079"/>
  <outline>
    <contour>
      <point x="21" y="-189" type="line"/>
      <point x="66" y="-207"/>
      <point x="109" y="-221"/>
      <point x="164" y="-221" type="curve"/>
      <point x="250" y="-221"/>
      <point x="303" y="-194"/>
      <point x="352" y="-55" type="curve" smooth="yes"/>
      <point x="539" y="480" type="line"/>
      <point x="515" y="454" type="line"/>
      <point x="611" y="480" type="line"/>
      <point x="611" y="540" type="line"/>
      <point x="369" y="540" type="line"/>
      <point x="369" y="480" type="line"/>
      <point x="472" y="459" type="line"/>
      <point x="453" y="483" type="line"/>
      <point x="281" y="-11" type="line" smooth="yes"/>
      <point x="246" y="-110"/>
      <point x="231" y="-137"/>
      <point x="157" y="-137" type="curve" smooth="yes"/>
      <point x="121" y="-137"/>
      <point x="87" y="-134"/>
      <point x="38" y="-124" type="curve"/>
    </contour>
    <contour>
      <point x="51" y="483" type="line"/>
      <point x="222" y="-2" type="line"/>
      <point x="307" y="-2" type="line"/>
      <point x="142" y="483" type="line"/>
      <point x="137" y="459" type="line"/>
      <point x="241" y="480" type="line"/>
      <point x="241" y="540" type="line"/>
      <point x="-14" y="540" type="line"/>
      <point x="-14" y="480" type="line"/>
      <point x="94" y="454" type="line"/>
    </contour>
    <contour>
      <point x="253" y="18" type="line"/>
      <point x="335" y="18" type="line"/>
      <point x="335" y="96" type="line"/>
      <point x="253" y="96" type="line"/>
    </contour>
  </outline>
</glyph>
<glyph name="z" format="2">
  <advance width="550"/>
  <unicode hex="007A"/>
  <outline>
    <contour>
      <point x="47" y="540" type="line"/>
      <point x="47" y="331" type="line"/>
      <point x="113" y="331" type="line"/>
      <point x="134" y="498" type="line"/>
      <point x="112" y="478" type="line"/>
      <point x="115" y="466" type="line"/>
      <point x="406" y="466" type="line"/>
      <point x="374" y="483" type="line"/>
      <point x="49" y="79" type="line"/>
      <point x="49" y="0" type="line"/>
      <point x="498" y="0" type="line"/>
      <point x="494" y="213" type="line"/>
      <point x="423" y="214" type="line"/>
      <point x="412" y="56" type="line"/>
      <point x="458" y="81" type="line"/>
      <point x="156" y="81" type="line"/>
      <point x="146" y="61" type="line"/>
      <point x="455" y="457" type="line"/>
      <point x="457" y="540" type="line"/>
    </contour>
  </outline>
</glyph>
<glyph name="dieresis" format="2">
  <advance width="403"/>
  <unicode hex="00A8"/>
  <outline>
    <contour>
      <point x="98" y="609" type="curve" smooth="yes"/>
      <point x="154" y="609"/>
      <point x="168" y="623"/>
      <point x="168" y="678" type="curve" smooth="yes"/>
      <point x="168" y="733"/>
      <point x="154" y="748"/>
      <point x="98" y="748" type="curve" smooth="yes"/>
      <point x="42" y="748"/>
      <point x="27" y="733"/>
      <point x="27" y="678" type="curve" smooth="yes"/>
      <point x="27" y="623"/>
      <point x="42" y="609"/>
    </contour>
    <contour>
      <point x="306" y="609" type="curve" smooth="yes"/>
      <point x="362" y="609"/>
      <point x="376" y="623"/>
      <point x="376" y="678" type="curve" smooth="yes"/>
      <point x="376" y="733"/>
      <point x="362" y="748"/>
      <point x="306" y="748" type="curve" smooth="yes"/>
      <point x="250" y="748"/>
      <point x="235" y="733"/>
      <point x="235" y="678" type="curve" smooth="yes"/>
      <point x="235" y="623"/>
      <point x="250" y="609"/>
    </contour>
  </outline>
</glyph>
<glyph name="acute" format="2">
  <advance width="621"/>
  <unicode hex="00B4"/>
  <outline>
    <contour>
      <point x="343.353" y="804" type="line"/>
      <point x="456.353" y="804" type="line"/>
      <point x="358.353" y="639" type="line"/>
      <point x="277.353" y="639" type="line"/>
    </contour>
  </outline>
</glyph>
<glyph name="questiondown" format="2">
  <advance width="503"/>
  <unicode hex="00BF"/>
  <outline>
    <contour>
      <point x="324.286" y="755" type="curve" smooth="yes"/>
      <point x="274.286" y="755"/>
      <point x="261.286" y="742"/>
      <point x="261.286" y="693" type="curve" smooth="yes"/>
      <point x="261.286" y="644"/>
      <point x="274.286" y="631"/>
      <point x="324.286" y="631" type="curve" smooth="yes"/>
      <point x="374.286" y="631"/>
      <point x="387.286" y="644"/>
      <point x="387.286" y="693" type="curve" smooth="yes"/>
      <point x="387.286" y="742"/>
      <point x="374.286" y="755"/>
    </contour>
    <contour>
      <point x="290.286" y="447" type="line"/>
      <point x="215.286" y="442" type="line" smooth="yes"/>
      <point x="79.2901" y="432.934"/>
      <point x="-1.71429" y="363"/>
      <point x="-1.71429" y="183" type="curve" smooth="yes"/>
      <point x="-1.71429" y="30"/>
      <point x="98.2857" y="-25"/>
      <point x="239.286" y="-25" type="curve" smooth="yes"/>
      <point x="350.286" y="-25"/>
      <point x="411.286" y="-10"/>
      <point x="467.286" y="17" type="curve"/>
      <point x="467.286" y="185" type="line"/>
      <point x="391.286" y="185" type="line"/>
      <point x="371.286" y="45" type="line"/>
      <point x="408.286" y="84" type="line"/>
      <point x="336.286" y="62"/>
      <point x="292.286" y="59"/>
      <point x="251.286" y="59" type="curve" smooth="yes"/>
      <point x="147.286" y="59"/>
      <point x="102.286" y="97"/>
      <point x="101.286" y="207" type="curve"/>
      <point x="101.286" y="311"/>
      <point x="116.286" y="372"/>
      <point x="286.286" y="384" type="curve"/>
      <point x="345.286" y="384" type="line" smooth="yes"/>
      <point x="358.286" y="384"/>
      <point x="364.138" y="389.989"/>
      <point x="363.286" y="403" type="curve" smooth="yes"/>
      <point x="352.286" y="571" type="line"/>
      <point x="291.286" y="571" type="line"/>
      <point x="274.286" y="411" type="line"/>
    </contour>
  </outline>
</glyph>
<glyph name="Aacute" format="2">
  <advance width="735"/>
  <unicode hex="00C1"/>
  <outline>
    <contour>
      <point x="388" y="998" type="line"/>
      <point x="501" y="998" type="line"/>
      <point x="403" y="833" type="line"/>
      <point x="322" y="833" type="line"/>
    </contour>
    <component base="A"/>
  </outline>
</glyph>
<glyph name="Iacute" format="2">
  <advance width="365"/>
  <unicode hex="00CD"/>
  <outline>
    <contour>
      <point x="200" y="998" type="line"/>
      <point x="313" y="998" type="line"/>
      <point x="215" y="833" type="line"/>
      <point x="134" y="833" type="line"/>
    </contour>
    <component base="I" xOffset="3"/>
  </outline>
</glyph>
<glyph name="Oacute" format="2">
  <advance width="764"/>
  <unicode hex="00D3"/>
  <outline>
    <contour>
      <point x="391" y="998" type="line"/>
      <point x="504" y="998" type="line"/>
      <point x="406" y="833" type="line"/>
      <point x="325" y="833" type="line"/>
    </contour>
    <component base="O" xOffset="3"/>
  </outline>
</glyph>
<glyph name="Udieresis" format="2">
  <advance width="791"/>
  <unicode hex="00DC"/>
  <outline>
    <contour>
      <point x="250" y="838" type="curve" smooth="yes"/>
      <point x="295" y="838"/>
      <point x="316" y="859"/>
      <point x="316" y="909" type="curve" smooth="yes"/>
      <point x="316" y="964"/>
      <point x="295" y="979"/>
      <point x="250" y="979" type="curve"/>
      <point x="201" y="979"/>
      <point x="182" y="964"/>
      <point x="182" y="909" type="curve" smooth="yes"/>
      <point x="182" y="859"/>
      <point x="201" y="838"/>
    </contour>
    <contour>
      <point x="521" y="838" type="curve" smooth="yes"/>
      <point x="563" y="838"/>
      <point x="584" y="859"/>
      <point x="584" y="909" type="curve" smooth="yes"/>
      <point x="584" y="964"/>
      <point x="563" y="979"/>
      <point x="521" y="979" type="curve"/>
      <point x="470" y="979"/>
      <point x="450" y="964"/>
      <point x="450" y="909" type="curve" smooth="yes"/>
      <point x="450" y="859"/>
      <point x="470" y="838"/>
    </contour>
    <component base="U" xOffset="3"/>
  </outline>
</glyph>
<glyph name="aacute" format="2">
  <advance width="607"/>
  <unicode hex="00E1"/>
  <outline>
    <contour>
      <point x="219" y="677" type="line"/>
      <point x="265" y="641" type="line"/>
      <point x="413" y="787" type="line"/>
      <point x="340" y="848" type="line"/>
    </contour>
    <component base="a"/>
  </outline>
</glyph>
<glyph name="dotlessi" format="2">
  <advance width="322"/>
  <unicode hex="0131"/>
  <outline>
    <contour>
      <point x="61" y="0" type="line"/>
      <point x="289" y="0" type="line"/>
      <point x="289" y="60" type="line"/>
      <point x="195" y="95" type="line"/>
      <point x="215" y="56" type="line"/>
      <point x="215" y="540" type="line"/>
      <point x="61" y="540" type="line"/>
      <point x="61" y="480" type="line"/>
      <point x="164" y="443" type="line"/>
      <point x="135" y="485" type="line"/>
      <point x="135" y="56" type="line"/>
      <point x="163" y="95" type="line"/>
      <point x="61" y="60" type="line"/>
    </contour>
  </outline>
</glyph>
<glyph name="dotaccent" format="2">
  <advance width="500"/>
  <unicode hex="02D9"/>
  <outline>
    <contour>
      <point x="314" y="731.0" type="curve" smooth="yes"/>
      <point x="314" y="782"/>
      <point x="302" y="794"/>
      <point x="250.0" y="794" type="curve"/>
      <point x="198" y="794"/>
      <point x="186" y="782"/>
      <point x="186" y="731.0" type="curve" smooth="yes"/>
      <point x="186" y="681"/>
      <point x="198" y="668"/>
      <point x="250.0" y="668" type="curve"/>
      <point x="302" y="668"/>
      <point x="314" y="681"/>
    </contour>
  </outline>
</glyph>
<glyph name="tilde" format="2">
  <advance width="440"/>
  <unicode hex="02DC"/>
  <outline>
    <contour>
      <point x="289" y="717" type="curve"/>
      <point x="227" y="717.0"/>
      <point x="218" y="779"/>
      <point x="147" y="779" type="curve" smooth="yes"/>
      <point x="93" y="779"/>
      <point x="56" y="757"/>
      <point x="60" y="709" type="curve" smooth="yes"/>
      <point x="65" y="644.0" type="line"/>
      <point x="112" y="644.0" type="line"/>
      <point x="123" y="721" type="line"/>
      <point x="106" y="688" type="line"/>
      <point x="119" y="698"/>
      <point x="126" y="706"/>
      <point x="148" y="706" type="curve" smooth="yes"/>
      <point x="200" y="706"/>
      <point x="202" y="644"/>
      <point x="289" y="644" type="curve"/>
      <point x="343.0" y="644.0"/>
      <point x="380.0" y="666.0"/>
      <point x="376.0" y="714.0" type="curve" smooth="yes"/>
      <point x="371.0" y="779.0" type="line"/>
      <point x="324.0" y="779.0" type="line"/>
      <point x="313.0" y="702.0" type="line"/>
      <point x="330.0" y="735.0" type="line"/>
      <point x="315" y="723"/>
      <point x="308" y="717"/>
    </contour>
  </outline>
</glyph>
<glyph name="ellipsis" format="2">
  <advance width="646"/>
  <unicode hex="2026"/>
  <outline>
    <contour>
      <point x="111" y="-12" type="curve" smooth="yes"/>
      <point x="160" y="-12"/>
      <point x="175" y="3"/>
      <point x="175" y="51" type="curve" smooth="yes"/>
      <point x="175" y="99"/>
      <point x="160" y="112"/>
      <point x="111" y="112" type="curve" smooth="yes"/>
      <point x="62" y="112"/>
      <point x="47" y="99"/>
      <point x="47" y="51" type="curve" smooth="yes"/>
      <point x="47" y="3"/>
      <point x="62" y="-12"/>
    </contour>
    <contour>
      <point x="323" y="-12" type="curve" smooth="yes"/>
      <point x="372" y="-12"/>
      <point x="387" y="3"/>
      <point x="387" y="51" type="curve" smooth="yes"/>
      <point x="387" y="99"/>
      <point x="372" y="112"/>
      <point x="323" y="112" type="curve" smooth="yes"/>
      <point x="274" y="112"/>
      <point x="259" y="99"/>
      <point x="259" y="51" type="curve" smooth="yes"/>
      <point x="259" y="3"/>
      <point x="274" y="-12"/>
    </contour>
    <contour>
      <point x="535" y="-12" type="curve" smooth="yes"/>
      <point x="584" y="-12"/>
      <point x="599" y="3"/>
      <point x="599" y="51" type="curve" smooth="yes"/>
      <point x="599" y="99"/>
      <point x="584" y="112"/>
      <point x="535" y="112" type="curve" smooth="yes"/>
      <point x="486" y="112"/>
      <point x="471" y="99"/>
      <point x="471" y="51" type="curve" smooth="yes"/>
      <point x="471" y="3"/>
      <point x="486" y="-12"/>
    </contour>
  </outline>
</glyph>
<glyph name="*" format="2">
  <advance width="542"/>
  <outline>
    <contour>
      <point x="539" y="-121" type="line"/>
      <point x="539" y="771" type="line"/>
      <point x="3" y="771" type="line"/>
      <point x="3" y="-121" type="line"/>
    </contour>
  </outline>
</glyph>
<glyph name="notdef" format="2">
  <advance width="742"/>
  <outline>
    <contour>
      <point x="49" y="0" type="line"/>
      <point x="151" y="323" type="line"/>
      <point x="237" y="323" type="line"/>
      <point x="184" y="291" type="line"/>
      <point x="184" y="375" type="line"/>
      <point x="237" y="343" type="line"/>
      <point x="237" y="343"/>
      <point x="181" y="343"/>
      <point x="181" y="343" type="curve"/>
      <point x="114" y="343"/>
      <point x="100" y="404"/>
      <point x="100" y="520" type="curve" smooth="yes"/>
      <point x="100" y="654"/>
      <point x="181" y="760"/>
      <point x="367" y="760" type="curve"/>
      <point x="553" y="760"/>
      <point x="634" y="654"/>
      <point x="634" y="520" type="curve" smooth="yes"/>
      <point x="634" y="404"/>
      <point x="620" y="343"/>
      <point x="553" y="343" type="curve"/>
      <point x="553" y="343"/>
      <point x="497" y="343"/>
      <point x="497" y="343" type="curve"/>
      <point x="550" y="375" type="line"/>
      <point x="550" y="291" type="line"/>
      <point x="497" y="323" type="line"/>
      <point x="583" y="323" type="line"/>
      <point x="685" y="0" type="line"/>
    </contour>
    <contour>
      <point x="608" y="71" type="line"/>
      <point x="587" y="27" type="line"/>
      <point x="501" y="295" type="line"/>
      <point x="480" y="295" type="line"/>
      <point x="480" y="369" type="line"/>
      <point x="566" y="369"/>
      <point x="555" y="457"/>
      <point x="555" y="519" type="curve" smooth="yes"/>
      <point x="555" y="590"/>
      <point x="502" y="679"/>
      <point x="364" y="679" type="curve"/>
      <point x="232" y="679"/>
      <point x="179" y="590"/>
      <point x="179" y="519" type="curve" smooth="yes"/>
      <point x="179" y="457"/>
      <point x="168" y="369"/>
      <point x="254" y="369" type="curve"/>
      <point x="254" y="295" type="line"/>
      <point x="233" y="295" type="line"/>
      <point x="147" y="27" type="line"/>
      <point x="126" y="71" type="line"/>
    </contour>
    <contour>
      <point x="182" y="650" type="line"/>
      <point x="254" y="690" type="line"/>
      <point x="568" y="62" type="line"/>
      <point x="475" y="62" type="line"/>
    </contour>
    <contour>
      <point x="553" y="651" type="line"/>
      <point x="258" y="62" type="line"/>
      <point x="165" y="62" type="line"/>
      <point x="481" y="691" type="line"/>
    </contour>
  </outline>
</glyph>
